<svg width="2500" height="1690" viewBox="0 0 2500 1690" fill="none" xmlns="http://www.w3.org/2000/svg">
<path d="M1824.57 396.554L1822.95 395.956C1820.93 395.202 1820.12 394.76 1820.12 393.59C1820.12 392.42 1820.87 391.068 1823.45 391.068C1825.71 391.068 1826.59 392.03 1826.59 393.616H1829.25C1829.25 390.6 1827.35 388.468 1823.45 388.468C1819.86 388.468 1817.47 390.548 1817.47 393.642C1817.47 396.684 1819.91 397.88 1821.97 398.608L1823.55 399.18C1825.74 399.96 1826.83 400.506 1826.83 401.91C1826.83 404.432 1824.44 404.744 1823.34 404.744C1821.19 404.744 1819.83 404.094 1819.65 401.91H1817C1817 405.602 1819.78 407.344 1823.24 407.344C1827.04 407.344 1829.48 405.186 1829.48 401.884C1829.48 398.374 1826.39 397.23 1824.57 396.554Z" fill="white"/>
<path d="M1843.44 400.246C1843.44 396.06 1841.39 393.382 1837.49 393.382C1833.77 393.382 1831.48 395.982 1831.48 400.246C1831.48 404.276 1833.48 407.344 1837.49 407.344C1841.52 407.344 1843.44 403.938 1843.44 400.246ZM1837.49 404.744C1834.6 404.744 1834.08 402.014 1834.08 400.272C1834.08 398.192 1834.81 395.982 1837.49 395.982C1840.06 395.982 1840.84 398.062 1840.84 400.272C1840.84 402.794 1839.8 404.744 1837.49 404.744Z" fill="white"/>
<path d="M1858.27 393.408C1856.47 393.408 1855.35 394.084 1854.55 395.072C1854.08 394.37 1853.14 393.408 1851.01 393.408C1849.92 393.408 1849.01 393.772 1848.31 394.292V393.616H1845.66L1845.76 395.436C1845.89 397.802 1845.76 406.616 1845.76 407.136H1848.36V399.882C1848.36 396.944 1849.4 396.008 1851.01 396.008C1852.42 396.008 1853.09 396.814 1853.09 399.05V407.136H1855.69V399.596C1855.69 396.71 1856.71 396.008 1858.27 396.008C1859.64 396.008 1860.4 396.814 1860.4 398.842V407.136H1863V399.024C1863 395.436 1861.8 393.408 1858.27 393.408Z" fill="white"/>
<path d="M1876.62 401.338C1876.68 400.896 1876.73 400.194 1876.73 399.622C1876.73 396.216 1874.96 393.408 1871.45 393.408C1867.68 393.408 1865.5 396.554 1865.5 400.532C1865.5 404.484 1867.63 407.344 1871.4 407.344C1874.21 407.344 1875.84 405.836 1876.62 402.95H1873.95C1873.22 404.588 1872.54 404.77 1871.4 404.77C1868.95 404.77 1868.25 402.56 1868.25 401.338H1876.62ZM1871.45 396.008C1873.06 396.008 1873.84 397.022 1874.08 398.972H1868.36C1868.72 397.282 1869.6 396.008 1871.45 396.008Z" fill="white"/>
<path d="M1885.05 393.408C1883.82 393.408 1882.76 393.824 1881.9 394.526L1881.93 393.616H1879.22L1879.25 395.436C1879.27 396.84 1879.3 410.828 1879.25 411.608H1881.82V406.33C1882.65 407.006 1883.69 407.318 1884.84 407.318C1888.56 407.318 1890.58 404.224 1890.58 400.35C1890.58 396.554 1888.61 393.408 1885.05 393.408ZM1884.84 404.796C1882.76 404.796 1881.82 402.716 1881.82 400.48C1881.82 398.816 1882.5 395.956 1885.05 395.956C1887.15 395.956 1888.06 398.114 1888.06 400.35C1888.06 402.612 1887.1 404.796 1884.84 404.796Z" fill="white"/>
<path d="M1893.08 388.156V407.136H1895.66V388.156H1893.08Z" fill="white"/>
<path d="M1908.1 407.136C1907.99 406.46 1907.99 404.848 1907.99 403.938V398.53C1907.99 395.124 1906.36 393.408 1903.11 393.408C1900.48 393.408 1898.56 394.942 1898.4 397.282H1901C1901.13 396.58 1901.65 395.982 1903.11 395.982C1904.9 395.982 1905.34 396.736 1905.39 398.192V398.946C1904.64 398.842 1903.91 398.764 1903.21 398.764C1899.91 398.764 1897.7 400.272 1897.7 403.21C1897.7 405.316 1899.1 407.344 1902.14 407.344C1903.13 407.344 1904.61 406.85 1905.47 406.122L1905.52 407.136H1908.1ZM1902.46 404.744C1901.05 404.744 1900.35 403.912 1900.35 403.08C1900.35 401.728 1901.7 401.286 1903.52 401.286C1904.09 401.286 1904.72 401.338 1905.39 401.416C1905.37 402.456 1905 404.744 1902.46 404.744Z" fill="white"/>
<path d="M1919.1 402.222C1919.1 403.6 1918.03 404.822 1916.37 404.822C1913.74 404.822 1912.81 402.43 1912.81 400.402C1912.81 396.45 1915.1 395.93 1916.45 395.93C1918.48 395.93 1918.92 397.308 1919 398.14L1919.02 398.478H1921.54L1921.52 397.932C1921.28 395.176 1919.31 393.408 1916.45 393.408C1912.42 393.408 1910.29 396.346 1910.29 400.428C1910.29 404.536 1912.73 407.344 1916.34 407.344C1919.33 407.344 1921.6 405.186 1921.6 402.222H1919.1Z" fill="white"/>
<path d="M1934.59 401.338C1934.64 400.896 1934.69 400.194 1934.69 399.622C1934.69 396.216 1932.93 393.408 1929.42 393.408C1925.65 393.408 1923.46 396.554 1923.46 400.532C1923.46 404.484 1925.59 407.344 1929.36 407.344C1932.17 407.344 1933.81 405.836 1934.59 402.95H1931.91C1931.18 404.588 1930.51 404.77 1929.36 404.77C1926.92 404.77 1926.22 402.56 1926.22 401.338H1934.59ZM1929.42 396.008C1931.03 396.008 1931.81 397.022 1932.04 398.972H1926.32C1926.69 397.282 1927.57 396.008 1929.42 396.008Z" fill="white"/>
<path d="M1954.87 407.136H1957.73L1951.57 388.676H1948.35L1942.19 407.136H1945.05L1946.68 402.014H1953.24L1954.87 407.136ZM1947.49 399.518L1949.96 391.848L1952.43 399.518H1947.49Z" fill="white"/>
<path d="M1964.89 393.408C1963.8 393.408 1962.73 393.85 1961.93 394.63L1961.85 393.616H1959.35C1959.46 394.136 1959.46 396.84 1959.46 397.516V407.136H1962.06V400.194C1962.06 397.984 1962.37 396.034 1964.63 396.034C1966.27 396.034 1967.1 396.528 1967.1 399.336V407.136H1969.7V398.764C1969.7 395.41 1968.12 393.408 1964.89 393.408Z" fill="white"/>
<path d="M1980.37 393.616L1977.33 403.288L1973.58 393.616H1970.78L1976 406.564L1974.42 411.608H1976.89L1983.18 393.616H1980.37Z" fill="white"/>
<path d="M1999.43 393.616L1997.11 404.12L1994.07 393.616H1992.07L1988.87 404.12L1986.66 393.616H1983.8L1987.18 407.136H1990.04L1993.03 398.218L1995.89 407.136H1998.75L2002.29 393.616H1999.43Z" fill="white"/>
<path d="M2009.6 393.408C2008.51 393.408 2007.52 393.668 2006.72 394.344V388.156H2004.01C2004.09 388.936 2004.12 389.976 2004.12 390.704V407.136H2006.72V400.246C2006.72 397.412 2007.65 395.956 2009.68 395.956C2011.16 395.956 2011.86 396.476 2011.86 399.336V407.136H2014.46V398.79C2014.46 395.306 2012.7 393.408 2009.6 393.408Z" fill="white"/>
<path d="M2028.03 401.338C2028.08 400.896 2028.13 400.194 2028.13 399.622C2028.13 396.216 2026.36 393.408 2022.85 393.408C2019.08 393.408 2016.9 396.554 2016.9 400.532C2016.9 404.484 2019.03 407.344 2022.8 407.344C2025.61 407.344 2027.25 405.836 2028.03 402.95H2025.35C2024.62 404.588 2023.95 404.77 2022.8 404.77C2020.36 404.77 2019.66 402.56 2019.66 401.338H2028.03ZM2022.85 396.008C2024.47 396.008 2025.25 397.022 2025.48 398.972H2019.76C2020.12 397.282 2021.01 396.008 2022.85 396.008Z" fill="white"/>
<path d="M2035.6 393.408C2034.71 393.408 2033.8 393.72 2033.1 394.292V393.616H2030.45C2030.5 394.136 2030.55 395.436 2030.55 396.476V407.136H2033.15V399.466C2033.15 397.126 2033.85 395.956 2035.62 395.956C2036.09 395.956 2036.4 396.008 2036.87 396.138V393.538C2036.35 393.434 2036.01 393.408 2035.6 393.408Z" fill="white"/>
<path d="M2049 401.338C2049.05 400.896 2049.11 400.194 2049.11 399.622C2049.11 396.216 2047.34 393.408 2043.83 393.408C2040.06 393.408 2037.87 396.554 2037.87 400.532C2037.87 404.484 2040.01 407.344 2043.78 407.344C2046.58 407.344 2048.22 405.836 2049 402.95H2046.32C2045.6 404.588 2044.92 404.77 2043.78 404.77C2041.33 404.77 2040.63 402.56 2040.63 401.338H2049ZM2043.83 396.008C2045.44 396.008 2046.22 397.022 2046.45 398.972H2040.73C2041.1 397.282 2041.98 396.008 2043.83 396.008Z" fill="white"/>
<path d="M2051.6 407.11H2054.28V403.964H2051.6V407.11Z" fill="white"/>
<path d="M2075.49 389.742V388.338H2064.8V407.136H2066.49V398.062H2075.13V396.658H2066.49V389.742H2075.49Z" fill="white"/>
<path d="M2088.07 407.136C2087.89 405.498 2087.81 403.912 2087.81 402.274V398.374C2087.81 395.124 2086.31 393.772 2083.06 393.772C2080.74 393.772 2078.48 394.76 2078.45 397.386H2080.01C2080.22 395.514 2081.37 394.968 2083.06 394.968C2085.37 394.968 2086.25 396.112 2086.25 398.348C2086.25 398.66 2086.25 398.946 2086.23 399.258H2085.55C2082.33 399.258 2077.44 399.388 2077.44 403.574C2077.44 406.226 2079.62 407.422 2082.02 407.422C2083.97 407.422 2085.32 406.902 2086.41 405.238C2086.49 405.862 2086.57 406.512 2086.62 407.136H2088.07ZM2086.28 400.428C2086.28 403.314 2086.05 406.278 2082.3 406.278C2080.64 406.278 2079.05 405.342 2079.05 403.522C2079.05 400.506 2082.8 400.376 2084.98 400.376C2085.42 400.376 2085.84 400.402 2086.28 400.428Z" fill="white"/>
<path d="M2093.93 407.136V388.338H2092.34V407.136H2093.93Z" fill="white"/>
<path d="M2100.05 407.136V388.338H2098.46V407.136H2100.05Z" fill="white"/>
<path d="M2122.29 407.136V405.654H2112.78C2114.68 403.782 2116.78 401.806 2118.5 399.752C2120.11 397.828 2122.06 395.54 2122.06 392.836C2122.06 389.612 2119.75 388 2116.73 388C2113.56 388 2111.22 389.924 2111.17 393.33H2112.93C2112.91 390.938 2114.44 389.43 2116.7 389.43C2118.81 389.43 2120.29 390.756 2120.29 392.992C2120.29 393.824 2120.08 394.682 2119.69 395.41C2118.03 398.53 2113.61 402.924 2110.96 405.342V407.136H2122.29Z" fill="white"/>
<path d="M2137.39 397.464C2137.39 393.434 2136.43 388 2131.51 388C2126.62 388 2125.45 393.538 2125.45 397.36C2125.45 401.52 2126.21 407.396 2131.38 407.396C2136.37 407.396 2137.39 401.546 2137.39 397.464ZM2135.65 397.75C2135.65 400.688 2135.13 406.044 2131.33 406.044C2127.66 406.044 2127.2 400.454 2127.2 397.698C2127.2 394.734 2127.66 389.378 2131.51 389.378C2135.23 389.378 2135.65 394.916 2135.65 397.75Z" fill="white"/>
<path d="M2151.39 407.136V405.654H2141.87C2143.77 403.782 2145.88 401.806 2147.59 399.752C2149.21 397.828 2151.16 395.54 2151.16 392.836C2151.16 389.612 2148.84 388 2145.83 388C2142.65 388 2140.31 389.924 2140.26 393.33H2142.03C2142 390.938 2143.54 389.43 2145.8 389.43C2147.91 389.43 2149.39 390.756 2149.39 392.992C2149.39 393.824 2149.18 394.682 2148.79 395.41C2147.13 398.53 2142.71 402.924 2140.05 405.342V407.136H2151.39Z" fill="white"/>
<path d="M2166.49 397.464C2166.49 393.434 2165.52 388 2160.61 388C2155.72 388 2154.55 393.538 2154.55 397.36C2154.55 401.52 2155.31 407.396 2160.48 407.396C2165.47 407.396 2166.49 401.546 2166.49 397.464ZM2164.74 397.75C2164.74 400.688 2164.22 406.044 2160.43 406.044C2156.76 406.044 2156.29 400.454 2156.29 397.698C2156.29 394.734 2156.76 389.378 2160.61 389.378C2164.33 389.378 2164.74 394.916 2164.74 397.75Z" fill="white"/>
<path d="M2172.48 407.136V404.9H2170.4V407.136H2172.48Z" fill="white"/>
<path d="M1615.68 267.304V325.122L1577.47 267.304H1568V349.079H1579.54V291.26L1617.76 349.079H1627.11V267.304H1615.68Z" fill="white"/>
<path d="M1687.58 323.394C1687.81 321.436 1688.04 318.327 1688.04 315.793C1688.04 300.705 1680.19 288.266 1664.61 288.266C1647.87 288.266 1638.17 302.202 1638.17 319.824C1638.17 337.331 1647.64 350 1664.38 350C1676.85 350 1684.12 343.32 1687.58 330.535H1675.69C1672.46 337.791 1669.46 338.598 1664.38 338.598C1653.53 338.598 1650.41 328.808 1650.41 323.394H1687.58ZM1664.61 299.783C1671.77 299.783 1675.23 304.275 1676.27 312.913H1650.87C1652.49 305.427 1656.41 299.783 1664.61 299.783Z" fill="white"/>
<path d="M1760.7 289.187L1750.43 335.718L1736.92 289.187H1728.03L1713.83 335.718L1704.02 289.187H1691.32L1706.33 349.079H1719.03L1732.3 309.573L1745 349.079H1757.7L1773.4 289.187H1760.7Z" fill="white"/>
<path d="M1860.28 349.079H1872.98L1845.62 267.304H1831.31L1803.95 349.079H1816.65L1823.92 326.389H1853.01L1860.28 349.079ZM1827.5 315.332L1838.47 281.355L1849.43 315.332H1827.5Z" fill="white"/>
<path d="M1903.03 288.266C1899.11 288.266 1895.07 289.648 1891.95 292.182V289.187H1880.18C1880.41 291.491 1880.64 297.249 1880.64 301.856V349.079H1892.18V315.102C1892.18 304.736 1895.3 299.553 1903.15 299.553C1905.23 299.553 1906.61 299.783 1908.69 300.359V288.841C1906.38 288.381 1904.88 288.266 1903.03 288.266Z" fill="white"/>
<path d="M1939.9 288.266C1935.98 288.266 1931.93 289.648 1928.82 292.182V289.187H1917.04C1917.27 291.491 1917.5 297.249 1917.5 301.856V349.079H1929.05V315.102C1929.05 304.736 1932.17 299.553 1940.02 299.553C1942.09 299.553 1943.48 299.783 1945.56 300.359V288.841C1943.25 288.381 1941.75 288.266 1939.9 288.266Z" fill="white"/>
<path d="M1952.78 267.304V280.549H1964.33V267.304H1952.78ZM1952.78 289.187V349.079H1964.33V289.187H1952.78Z" fill="white"/>
<path d="M2010.76 289.072L1996.9 334.912L1983.05 289.072H1970.35L1990.55 349.079H2003.25L2023.46 289.072H2010.76Z" fill="white"/>
<path d="M2073.11 349.079C2072.65 346.084 2072.65 338.943 2072.65 334.912V310.955C2072.65 295.867 2065.37 288.266 2050.94 288.266C2039.28 288.266 2030.74 295.061 2030.05 305.427H2041.59C2042.17 302.317 2044.48 299.668 2050.94 299.668C2058.91 299.668 2060.87 303.008 2061.1 309.458V312.798C2057.75 312.337 2054.52 311.992 2051.41 311.992C2036.74 311.992 2026.93 318.672 2026.93 331.687C2026.93 341.016 2033.17 350 2046.67 350C2051.06 350 2057.64 347.812 2061.45 344.587L2061.68 349.079H2073.11ZM2048.06 338.482C2041.82 338.482 2038.71 334.797 2038.71 331.111C2038.71 325.122 2044.71 323.164 2052.79 323.164C2055.33 323.164 2058.1 323.394 2061.1 323.74C2060.99 328.347 2059.37 338.482 2048.06 338.482Z" fill="white"/>
<path d="M2086.72 265V349.079H2098.14V265H2086.72Z" fill="white"/>
<path d="M2149.08 330.996C2149.08 320.86 2141.35 316.944 2133.73 314.526C2126.57 312.107 2119.53 310.84 2119.53 306.118C2119.53 303.123 2121.26 299.668 2128.42 299.668C2135.57 299.668 2136.73 303.123 2136.73 306.694H2148.27C2148.27 295.291 2140.54 288.15 2128.42 288.15C2116.41 288.15 2107.98 295.522 2107.98 306.118C2107.98 316.369 2114.56 320.515 2121.61 323.164C2129.46 326.043 2137.88 326.965 2137.88 332.378C2137.88 336.064 2136.04 339.173 2127.61 339.173C2120.45 339.173 2118.37 336.179 2118.37 330.42H2106.83C2106.83 342.283 2113.64 350 2127.61 350C2140.65 350 2149.08 342.629 2149.08 330.996Z" fill="white"/>
<path d="M2160.11 348.963H2172V335.027H2160.11V348.963Z" fill="white"/>
</svg>
