<svg width="1024" height="1670" viewBox="0 0 1024 1670" fill="none" xmlns="http://www.w3.org/2000/svg">
<path d="M454.855 508.319L452.542 507.458C449.633 506.372 448.476 505.736 448.476 504.051C448.476 502.366 449.558 500.419 453.251 500.419C456.496 500.419 457.764 501.804 457.764 504.088H461.569C461.569 499.744 458.846 496.674 453.251 496.674C448.103 496.674 444.671 499.67 444.671 504.126C444.671 508.507 448.178 510.229 451.125 511.278L453.4 512.101C456.533 513.225 458.1 514.011 458.1 516.033C458.1 519.665 454.668 520.115 453.102 520.115C450.006 520.115 448.066 519.178 447.805 516.033H444C444 521.35 447.991 523.859 452.952 523.859C458.398 523.859 461.905 520.751 461.905 515.996C461.905 510.941 457.466 509.293 454.855 508.319Z" fill="white"/>
<path d="M481.933 513.637C481.933 507.608 478.986 503.751 473.391 503.751C468.057 503.751 464.774 507.496 464.774 513.637C464.774 519.441 467.646 523.859 473.391 523.859C479.173 523.859 481.933 518.954 481.933 513.637ZM473.391 520.115C469.25 520.115 468.504 516.183 468.504 513.674C468.504 510.678 469.549 507.496 473.391 507.496C477.084 507.496 478.203 510.491 478.203 513.674C478.203 517.306 476.711 520.115 473.391 520.115Z" fill="white"/>
<path d="M503.202 503.789C500.629 503.789 499.025 504.762 497.868 506.185C497.197 505.174 495.854 503.789 492.795 503.789C491.229 503.789 489.923 504.313 488.916 505.062V504.088H485.111L485.26 506.709C485.447 510.117 485.26 522.811 485.26 523.559H488.99V513.112C488.99 508.881 490.483 507.533 492.795 507.533C494.809 507.533 495.779 508.694 495.779 511.914V523.559H499.509V512.7C499.509 508.544 500.964 507.533 503.202 507.533C505.179 507.533 506.261 508.694 506.261 511.615V523.559H509.991V511.877C509.991 506.709 508.275 503.789 503.202 503.789Z" fill="white"/>
<path d="M529.541 515.209C529.616 514.573 529.691 513.562 529.691 512.738C529.691 507.833 527.154 503.789 522.118 503.789C516.71 503.789 513.576 508.319 513.576 514.048C513.576 519.74 516.635 523.859 522.044 523.859C526.072 523.859 528.422 521.687 529.541 517.531H525.699C524.655 519.89 523.685 520.152 522.044 520.152C518.537 520.152 517.53 516.969 517.53 515.209H529.541ZM522.118 507.533C524.431 507.533 525.55 508.993 525.886 511.802H517.679C518.202 509.368 519.47 507.533 522.118 507.533Z" fill="white"/>
<path d="M541.624 503.789C539.87 503.789 538.341 504.388 537.11 505.399L537.147 504.088H533.268L533.305 506.709C533.343 508.731 533.38 528.877 533.305 530H536.998V522.399C538.192 523.372 539.684 523.822 541.325 523.822C546.659 523.822 549.569 519.366 549.569 513.786C549.569 508.319 546.734 503.789 541.624 503.789ZM541.325 520.189C538.341 520.189 536.998 517.194 536.998 513.974C536.998 511.577 537.968 507.458 541.624 507.458C544.645 507.458 545.951 510.566 545.951 513.786C545.951 517.044 544.57 520.189 541.325 520.189Z" fill="white"/>
<path d="M553.157 496.225V523.559H556.85V496.225H553.157Z" fill="white"/>
<path d="M574.697 523.559C574.548 522.586 574.548 520.264 574.548 518.954V511.165C574.548 506.26 572.198 503.789 567.535 503.789C563.768 503.789 561.008 505.998 560.784 509.368H564.514C564.701 508.357 565.447 507.496 567.535 507.496C570.109 507.496 570.743 508.581 570.818 510.678V511.764C569.736 511.615 568.692 511.502 567.685 511.502C562.947 511.502 559.777 513.674 559.777 517.905C559.777 520.938 561.791 523.859 566.155 523.859C567.573 523.859 569.699 523.148 570.93 522.099L571.005 523.559H574.697ZM566.603 520.115C564.589 520.115 563.581 518.916 563.581 517.718C563.581 515.771 565.521 515.134 568.132 515.134C568.953 515.134 569.848 515.209 570.818 515.322C570.781 516.819 570.258 520.115 566.603 520.115Z" fill="white"/>
<path d="M590.479 516.482C590.479 518.467 588.95 520.227 586.563 520.227C582.795 520.227 581.452 516.782 581.452 513.861C581.452 508.17 584.735 507.421 586.675 507.421C589.584 507.421 590.218 509.405 590.33 510.604L590.368 511.09H593.986L593.949 510.304C593.613 506.335 590.778 503.789 586.675 503.789C580.893 503.789 577.834 508.02 577.834 513.899C577.834 519.815 581.341 523.859 586.525 523.859C590.815 523.859 594.06 520.751 594.06 516.482H590.479Z" fill="white"/>
<path d="M612.705 515.209C612.78 514.573 612.854 513.562 612.854 512.738C612.854 507.833 610.318 503.789 605.282 503.789C599.873 503.789 596.74 508.319 596.74 514.048C596.74 519.74 599.799 523.859 605.208 523.859C609.236 523.859 611.586 521.687 612.705 517.531H608.863C607.819 519.89 606.849 520.152 605.208 520.152C601.701 520.152 600.694 516.969 600.694 515.209H612.705ZM605.282 507.533C607.595 507.533 608.714 508.993 609.05 511.802H600.843C601.365 509.368 602.634 507.533 605.282 507.533Z" fill="white"/>
<path d="M641.806 523.559H645.909L637.068 496.974H632.443L623.602 523.559H627.706L630.056 516.183H639.456L641.806 523.559ZM631.212 512.588L634.756 501.542L638.299 512.588H631.212Z" fill="white"/>
<path d="M656.178 503.789C654.611 503.789 653.082 504.425 651.926 505.548L651.814 504.088H648.233C648.382 504.837 648.382 508.731 648.382 509.705V523.559H652.112V513.562C652.112 510.379 652.56 507.57 655.805 507.57C658.155 507.57 659.349 508.282 659.349 512.326V523.559H663.079V511.502C663.079 506.672 660.804 503.789 656.178 503.789Z" fill="white"/>
<path d="M678.384 504.088L674.02 518.018L668.648 504.088H664.62L672.117 522.736L669.842 530H673.386L682.413 504.088H678.384Z" fill="white"/>
<path d="M705.725 504.088L702.405 519.216L698.041 504.088H695.169L690.581 519.216L687.41 504.088H683.307L688.156 523.559H692.259L696.549 510.716L700.652 523.559H704.755L709.828 504.088H705.725Z" fill="white"/>
<path d="M720.323 503.789C718.757 503.789 717.339 504.163 716.183 505.137V496.225H712.303C712.415 497.348 712.453 498.846 712.453 499.894V523.559H716.183V513.637C716.183 509.555 717.526 507.458 720.435 507.458C722.561 507.458 723.569 508.207 723.569 512.326V523.559H727.299V511.54C727.299 506.522 724.762 503.789 720.323 503.789Z" fill="white"/>
<path d="M746.758 515.209C746.832 514.573 746.907 513.562 746.907 512.738C746.907 507.833 744.371 503.789 739.335 503.789C733.926 503.789 730.793 508.319 730.793 514.048C730.793 519.74 733.852 523.859 739.26 523.859C743.289 523.859 745.639 521.687 746.758 517.531H742.916C741.871 519.89 740.902 520.152 739.26 520.152C735.754 520.152 734.747 516.969 734.747 515.209H746.758ZM739.335 507.533C741.648 507.533 742.767 508.993 743.102 511.802H734.896C735.418 509.368 736.686 507.533 739.335 507.533Z" fill="white"/>
<path d="M757.615 503.789C756.347 503.789 755.041 504.238 754.034 505.062V504.088H750.23C750.304 504.837 750.379 506.709 750.379 508.207V523.559H754.109V512.513C754.109 509.143 755.116 507.458 757.653 507.458C758.324 507.458 758.772 507.533 759.443 507.72V503.976C758.697 503.826 758.212 503.789 757.615 503.789Z" fill="white"/>
<path d="M776.847 515.209C776.922 514.573 776.996 513.562 776.996 512.738C776.996 507.833 774.46 503.789 769.424 503.789C764.015 503.789 760.882 508.319 760.882 514.048C760.882 519.74 763.941 523.859 769.349 523.859C773.378 523.859 775.728 521.687 776.847 517.531H773.005C771.96 519.89 770.991 520.152 769.349 520.152C765.843 520.152 764.836 516.969 764.836 515.209H776.847ZM769.424 507.533C771.737 507.533 772.856 508.993 773.191 511.802H764.985C765.507 509.368 766.775 507.533 769.424 507.533Z" fill="white"/>
<path d="M780.574 523.522H784.416V518.991H780.574V523.522Z" fill="white"/>
<path d="M814.85 498.509V496.487H799.519V523.559H801.943V510.491H814.327V508.469H801.943V498.509H814.85Z" fill="white"/>
<path d="M832.904 523.559C832.643 521.2 832.531 518.916 832.531 516.557V510.941C832.531 506.26 830.368 504.313 825.705 504.313C822.385 504.313 819.14 505.736 819.103 509.518H821.341C821.639 506.822 823.28 506.035 825.705 506.035C829.025 506.035 830.293 507.683 830.293 510.903C830.293 511.352 830.293 511.764 830.256 512.214H829.286C824.661 512.214 817.648 512.401 817.648 518.43C817.648 522.249 820.781 523.971 824.213 523.971C827.011 523.971 828.95 523.222 830.517 520.826C830.629 521.725 830.741 522.661 830.815 523.559H832.904ZM830.331 513.899C830.331 518.055 829.995 522.324 824.623 522.324C822.236 522.324 819.961 520.976 819.961 518.355C819.961 514.011 825.332 513.824 828.465 513.824C829.1 513.824 829.696 513.861 830.331 513.899Z" fill="white"/>
<path d="M841.302 523.559V496.487H839.027V523.559H841.302Z" fill="white"/>
<path d="M850.081 523.559V496.487H847.806V523.559H850.081Z" fill="white"/>
<path d="M881.997 523.559V521.425H868.345C871.068 518.729 874.089 515.883 876.551 512.925C878.864 510.154 881.662 506.859 881.662 502.965C881.662 498.322 878.342 496 874.015 496C869.464 496 866.107 498.771 866.032 503.676H868.569C868.531 500.231 870.732 498.059 873.977 498.059C876.999 498.059 879.125 499.969 879.125 503.189C879.125 504.388 878.827 505.623 878.267 506.672C875.88 511.165 869.539 517.493 865.734 520.976V523.559H881.997Z" fill="white"/>
<path d="M903.654 509.63C903.654 503.826 902.273 496 895.223 496C888.211 496 886.532 503.976 886.532 509.48C886.532 515.471 887.614 523.934 895.037 523.934C902.199 523.934 903.654 515.509 903.654 509.63ZM901.154 510.042C901.154 514.273 900.408 521.987 894.962 521.987C889.703 521.987 889.031 513.936 889.031 509.967C889.031 505.698 889.703 497.985 895.223 497.985C900.558 497.985 901.154 505.96 901.154 510.042Z" fill="white"/>
<path d="M923.743 523.559V521.425H910.091C912.814 518.729 915.835 515.883 918.297 512.925C920.61 510.154 923.407 506.859 923.407 502.965C923.407 498.322 920.088 496 915.761 496C911.21 496 907.853 498.771 907.778 503.676H910.315C910.277 500.231 912.478 498.059 915.723 498.059C918.745 498.059 920.871 499.969 920.871 503.189C920.871 504.388 920.572 505.623 920.013 506.672C917.626 511.165 911.284 517.493 907.48 520.976V523.559H923.743Z" fill="white"/>
<path d="M945.399 509.63C945.399 503.826 944.019 496 936.969 496C929.956 496 928.278 503.976 928.278 509.48C928.278 515.471 929.36 523.934 936.783 523.934C943.945 523.934 945.399 515.509 945.399 509.63ZM942.9 510.042C942.9 514.273 942.154 521.987 936.708 521.987C931.449 521.987 930.777 513.936 930.777 509.967C930.777 505.698 931.448 497.985 936.969 497.985C942.303 497.985 942.9 505.96 942.9 510.042Z" fill="white"/>
<path d="M954 523.559V520.339H951.016V523.559H954Z" fill="white"/>
<path d="M156.282 323.279V405.585L101.557 323.279H88V439.688H104.533V357.382L159.258 439.688H172.65V323.279H156.282Z" fill="white"/>
<path d="M259.257 403.126C259.587 400.339 259.918 395.912 259.918 392.305C259.918 370.827 248.675 353.119 226.356 353.119C202.382 353.119 188.495 372.958 188.495 398.043C188.495 422.965 202.052 441 226.025 441C243.881 441 254.297 431.491 259.257 413.291H242.227C237.598 423.621 233.299 424.768 226.025 424.768C210.484 424.768 206.02 410.832 206.02 403.126H259.257ZM226.356 369.515C236.606 369.515 241.566 375.909 243.054 388.206H206.681C208.996 377.549 214.617 369.515 226.356 369.515Z" fill="white"/>
<path d="M363.973 354.431L349.259 420.669L329.915 354.431H317.185L296.849 420.669L282.796 354.431H264.609L286.102 439.688H304.289L323.302 383.451L341.488 439.688H359.675L382.16 354.431H363.973Z" fill="white"/>
<path d="M506.586 439.688H524.773L485.589 323.279H465.088L425.904 439.688H444.091L454.507 407.389H496.17L506.586 439.688ZM459.632 391.649L475.339 343.282L491.045 391.649H459.632Z" fill="white"/>
<path d="M567.809 353.119C562.188 353.119 556.402 355.087 551.938 358.694V354.431H535.074C535.404 357.71 535.735 365.908 535.735 372.466V439.688H552.268V391.321C552.268 376.565 556.732 369.187 567.975 369.187C570.951 369.187 572.935 369.515 575.911 370.335V353.939C572.604 353.283 570.455 353.119 567.809 353.119Z" fill="white"/>
<path d="M620.606 353.119C614.984 353.119 609.198 355.087 604.734 358.694V354.431H587.87C588.201 357.71 588.531 365.908 588.531 372.466V439.688H605.065V391.321C605.065 376.565 609.529 369.187 620.771 369.187C623.747 369.187 625.731 369.515 628.707 370.335V353.939C625.4 353.283 623.251 353.119 620.606 353.119Z" fill="white"/>
<path d="M639.052 323.279V342.134H655.585V323.279H639.052ZM639.052 354.431V439.688H655.585V354.431H639.052Z" fill="white"/>
<path d="M722.081 354.267L702.241 419.522L682.401 354.267H664.215L693.148 439.688H711.334L740.267 354.267H722.081Z" fill="white"/>
<path d="M811.377 439.688C810.715 435.425 810.715 425.26 810.715 419.522V385.419C810.715 363.94 800.299 353.119 779.633 353.119C762.934 353.119 750.7 362.793 749.708 377.549H766.241C767.068 373.122 770.374 369.351 779.633 369.351C791.041 369.351 793.851 374.106 794.182 383.287V388.042C789.387 387.386 784.758 386.894 780.294 386.894C759.297 386.894 745.244 396.404 745.244 414.931C745.244 428.211 754.172 441 773.516 441C779.798 441 789.222 437.885 794.678 433.294L795.009 439.688H811.377ZM775.5 424.604C766.572 424.604 762.108 419.358 762.108 414.111C762.108 405.585 770.705 402.798 782.278 402.798C785.915 402.798 789.883 403.126 794.182 403.618C794.017 410.176 791.702 424.604 775.5 424.604Z" fill="white"/>
<path d="M830.862 320V439.688H847.23V320H830.862Z" fill="white"/>
<path d="M920.178 413.947C920.178 399.519 909.101 393.944 898.189 390.501C887.938 387.058 877.853 385.255 877.853 378.533C877.853 374.27 880.333 369.351 890.583 369.351C900.834 369.351 902.487 374.27 902.487 379.352H919.02C919.02 363.121 907.943 352.955 890.583 352.955C873.389 352.955 861.32 363.449 861.32 378.533C861.32 393.125 870.744 399.027 880.829 402.798C892.071 406.897 904.141 408.209 904.141 415.915C904.141 421.161 901.495 425.588 889.426 425.588C879.175 425.588 876.2 421.325 876.2 413.127H859.666C859.666 430.015 869.421 441 889.426 441C908.109 441 920.178 430.507 920.178 413.947Z" fill="white"/>
<path d="M935.971 439.524H953V419.686H935.971V439.524Z" fill="white"/>
</svg>
