<svg width="2500" height="2565" viewBox="0 0 2500 2565" fill="none" xmlns="http://www.w3.org/2000/svg">
<path d="M275.743 771.293L275.581 769.604L262.851 770.855L262.332 765.594L260.905 765.74L262.121 777.934L263.548 777.788L263.029 772.543L275.743 771.293Z" fill="#F5F1DA"/>
<path d="M277.17 750.786L275.759 750.526L274.349 758.271L269.483 757.394L270.748 750.526L269.305 750.266L268.056 757.134L263.175 756.258L264.586 748.529L263.175 748.269L261.456 757.654L275.451 760.187L277.17 750.786Z" fill="#F5F1DA"/>
<path d="M279.327 744.876L268.478 739.485L268.494 739.453L282.96 737.667L283.673 736.254L270.959 729.922L270.229 731.399L280.381 736.449L280.365 736.481L266.808 738.17L265.867 740.037L278.581 746.369L279.327 744.876Z" fill="#F5F1DA"/>
<path d="M290.533 728.46C293.063 725.83 292.966 722.858 290.16 720.179L284.079 714.383L282.895 715.617L289.041 721.478C291.23 723.557 291.214 725.651 289.479 727.454C287.76 729.24 285.635 729.353 283.446 727.275L277.3 721.413L276.116 722.647L282.165 728.411C285.003 731.107 288.036 731.058 290.533 728.46Z" fill="#F5F1DA"/>
<path d="M306.718 716.494L306.004 715.26L299.128 719.173L296.663 714.935L302.761 711.444L302.031 710.194L295.95 713.668L293.468 709.398L300.328 705.485L299.615 704.251L291.279 709.009L298.382 721.251L306.718 716.494Z" fill="#F5F1DA"/>
<path d="M323.94 712.11C328.043 711.753 330.589 708.7 330.216 704.462C329.843 700.241 326.794 697.675 322.675 698.032L317.648 698.471L318.913 712.548L323.94 712.11ZM322.805 699.461C326.097 699.169 328.14 701.231 328.449 704.625C328.757 708.034 327.103 710.405 323.81 710.697L320.486 710.989L319.48 699.754L322.805 699.461Z" fill="#F5F1DA"/>
<path d="M344.86 712.451L337.076 710.908L338.049 706.102L344.941 707.466L345.217 706.053L338.325 704.689L339.298 699.851L347.05 701.393L347.325 699.997L337.919 698.13L335.146 711.98L344.568 713.847L344.86 712.451Z" fill="#F5F1DA"/>
<path d="M364.888 710.113L364.256 724.58L365.553 725.505L373.937 714.107L372.608 713.133L365.91 722.241L365.878 722.209L366.445 708.667L364.742 707.433L356.342 718.832L357.704 719.822L364.856 710.08L364.888 710.113Z" fill="#F5F1DA"/>
<path d="M369.575 730.003L370.694 731.302L381.527 722.16L380.424 720.861L369.575 730.003Z" fill="#F5F1DA"/>
<path d="M383.181 719.692L382.857 722.16L383.522 722.94L384.624 719.644L383.44 718.263L379.986 718.799L380.667 719.595L383.181 719.692Z" fill="#F5F1DA"/>
<path d="M375.186 737.114L386.392 731.708L386.408 731.74L377.213 741.287L377.829 742.521L391.063 741.239L391.079 741.287L379.857 746.694L380.586 748.172L393.382 742.002L392.263 739.729L379.565 741.011L379.548 740.979L388.419 731.854L387.268 729.483L374.473 735.653L375.186 737.114Z" fill="#F5F1DA"/>
<path d="M383.1 762.363L384.527 762.152L383.343 754.358L388.225 753.627L389.279 760.544L390.706 760.317L389.668 753.416L394.565 752.686L395.749 760.447L397.16 760.236L395.733 750.818L381.673 752.913L383.1 762.363Z" fill="#F5F1DA"/>
<path d="M393.479 767.964C391.046 767.672 389.96 769.247 389.376 771.082L388.516 773.68C387.916 775.547 387.073 776.099 385.889 775.953C384.186 775.742 383.408 774.151 383.651 772.153C383.911 770.075 384.916 768.322 387.203 768.387L387.397 766.763C384.284 766.584 382.646 768.971 382.273 772.007C381.9 774.979 383.343 777.301 385.76 777.593C387.997 777.869 389.165 776.619 389.879 774.508L390.787 771.829C391.338 770.156 391.922 769.442 393.333 769.604C394.809 769.783 395.814 771.147 395.555 773.193C395.311 775.19 394.225 776.456 392.619 776.505L392.425 778.129C395.003 778.161 396.56 776.343 396.933 773.339C397.274 770.432 395.782 768.24 393.479 767.964Z" fill="#F5F1DA"/>
<path d="M284.727 798.197L289.787 804.237L290.89 803.328L284.744 795.989L273.813 805.017L279.96 812.372L281.062 811.463L275.986 805.406L279.797 802.256L284.289 807.631L285.408 806.722L280.916 801.347L284.727 798.197Z" fill="#F5F1DA"/>
<path d="M298.528 809.043C296.096 807.387 293.452 807.68 292.122 809.579C290.728 811.576 291.636 813.265 293.014 814.629L294.944 816.594C296.339 817.974 296.436 818.98 295.755 819.955C294.782 821.351 292.998 821.302 291.328 820.166C289.593 818.98 288.49 817.292 289.609 815.295L288.247 814.385C286.641 817.032 288.02 819.581 290.566 821.335C293.047 823.023 295.787 822.845 297.166 820.848C298.447 819.013 297.879 817.389 296.323 815.798L294.36 813.752C293.128 812.502 292.755 811.641 293.55 810.489C294.393 809.271 296.063 809.011 297.782 810.18C299.453 811.333 300.085 812.859 299.371 814.304L300.734 815.23C301.95 812.973 301.042 810.765 298.528 809.043Z" fill="#F5F1DA"/>
<path d="M305.437 815.311L310.448 817.032L306.312 829.031L307.934 829.583L312.069 817.584L317.113 819.289L317.567 817.941L305.907 813.963L305.437 815.311Z" fill="#F5F1DA"/>
<path d="M319.74 832.327L321.897 832.587L322.173 830.444L320.016 830.184L319.74 832.327Z" fill="#F5F1DA"/>
<path d="M333.897 831.434C333.751 830.151 335.308 828.771 336.898 827.44C338.86 825.832 340.903 824.404 340.595 821.773C340.352 819.695 338.6 817.86 335.633 818.217C332.665 818.575 331.205 820.848 331.368 823.332L332.973 823.137C332.892 821.432 333.849 819.841 335.779 819.614C337.871 819.37 338.811 820.62 338.957 821.952C339.152 823.575 337.757 824.809 336.022 826.222C334.076 827.765 331.854 829.794 332.146 832.295L332.243 833.058L341.941 831.921L341.763 830.509L333.897 831.434Z" fill="#F5F1DA"/>
<path d="M348.801 814.905C345.59 816.155 344.649 819.809 346.206 823.754C347.763 827.7 350.942 829.745 354.152 828.511C357.38 827.261 358.304 823.608 356.747 819.662C355.19 815.701 352.028 813.639 348.801 814.905ZM353.617 827.131C351.201 828.073 349.109 826.336 347.844 823.105C346.579 819.873 346.92 817.194 349.336 816.253C351.769 815.311 353.861 817.048 355.125 820.263C356.407 823.511 356.05 826.19 353.617 827.131Z" fill="#F5F1DA"/>
<path d="M361.418 807.923C358.661 809.985 358.758 813.752 361.304 817.129C363.867 820.507 367.483 821.643 370.24 819.597C373.013 817.535 372.899 813.768 370.353 810.391C367.791 806.998 364.191 805.861 361.418 807.923ZM369.364 818.428C367.288 819.971 364.807 818.867 362.715 816.09C360.623 813.33 360.234 810.635 362.31 809.092C364.402 807.533 366.883 808.654 368.975 811.414C371.067 814.191 371.456 816.87 369.364 818.428Z" fill="#F5F1DA"/>
<path d="M383.1 800.389C381.786 799.366 379.792 799.675 378.64 800.698C379.062 799.253 378.738 797.808 377.456 796.817C375.527 795.323 373.11 796.005 371.472 798.1C369.851 800.178 369.753 802.662 371.683 804.156C372.948 805.147 374.456 805.098 375.754 804.351C375.04 805.699 375.219 807.696 376.532 808.719C378.462 810.212 381.073 809.595 383.051 807.079C385.078 804.53 385.03 801.883 383.1 800.389ZM372.656 802.938C371.294 801.883 371.505 800.259 372.543 798.928C373.597 797.58 375.121 796.996 376.483 798.051C377.862 799.123 377.651 800.746 376.597 802.078C375.575 803.409 374.051 804.01 372.656 802.938ZM381.981 806.234C380.603 807.988 378.916 808.41 377.602 807.387C376.305 806.381 376.321 804.676 377.7 802.922C379.094 801.136 380.749 800.714 382.046 801.721C383.376 802.744 383.392 804.465 381.981 806.234Z" fill="#F5F1DA"/>
<path d="M336.411 791.232L329.973 794.528V763.564L347.26 772.397V752.848H345.671V769.815L329.973 761.811V738.089H355.693V736.53H302.647V738.089H328.384V760.999L311.096 752.182V771.715H312.669V754.748L328.384 762.769V795.323L321.216 798.993L321.929 800.389L328.384 797.093V804.14H329.973V796.298L337.141 792.628L336.411 791.232Z" fill="#F5F1DA"/>
<path fill-rule="evenodd" clip-rule="evenodd" d="M238.428 886.574L237.585 887.191C234.763 889.253 233.271 894.254 231.827 899.093C231.341 900.733 230.854 902.308 230.368 903.672C229.946 901.269 229.444 898.2 228.957 895.18C228.179 890.439 227.384 885.535 226.865 883.181L225 883.587C225.519 885.892 226.297 890.763 227.076 895.472C227.838 900.213 228.568 904.678 229.071 907.016L229.573 909.371L230.806 907.309C231.909 905.474 232.752 902.632 233.644 899.629C234.763 895.878 236.011 891.705 237.812 889.562C239.304 893.556 239.725 902.015 239.725 906.805H241.623C241.623 905.295 241.541 891.916 238.947 887.484L238.428 886.574Z" fill="#F5F1DA"/>
<path fill-rule="evenodd" clip-rule="evenodd" d="M256.007 899.45C254.872 903.931 253.899 906.886 250.85 906.886C247.98 906.886 247.363 903.85 246.747 899.206L246.309 896.316L244.461 896.674L244.882 899.45C245.434 903.607 246.115 908.786 250.866 908.786C255.618 908.786 256.818 904.078 257.872 899.921L258.407 897.908L256.575 897.388L256.007 899.45Z" fill="#F5F1DA"/>
<path fill-rule="evenodd" clip-rule="evenodd" d="M266.84 885.308L265.397 886.542C268.186 889.773 268.9 892.549 270.002 896.755C270.002 896.755 270.051 896.95 270.1 897.112C270.084 897.096 269.986 897.031 269.986 897.031C269.273 896.398 268.462 895.667 267.132 895.667C264.472 895.667 261.602 897.485 261.602 900.441C261.602 903.834 263.824 906.416 267.862 907.715L268.008 907.763H272.159V897.518L271.835 896.284C270.732 891.981 269.921 888.88 266.84 885.308ZM270.262 905.864C269.435 905.864 268.527 905.864 268.332 905.864C266.11 905.133 263.516 903.607 263.516 900.457C263.516 898.687 265.397 897.583 267.148 897.583C267.716 897.583 268.089 897.891 268.721 898.46L269.792 899.336C269.792 899.336 270.035 898.979 270.262 898.638C270.262 900.002 270.262 904.516 270.262 905.864Z" fill="#F5F1DA"/>
<path fill-rule="evenodd" clip-rule="evenodd" d="M278.273 899.677L278.338 898.687L278.403 897.502H276.505L276.44 898.492L276.376 899.661C276.376 904.207 279.489 907.779 285.165 909.728L285.781 907.926C282.96 906.984 278.273 904.63 278.273 899.677Z" fill="#F5F1DA"/>
<path fill-rule="evenodd" clip-rule="evenodd" d="M293.598 894.66C290.922 894.66 290.095 896.771 289.722 899.06C288.944 898.93 288.149 898.784 287.29 898.622L286.917 900.489C287.825 900.668 288.668 900.814 289.495 900.96C289.479 901.041 289.479 901.139 289.463 901.236C289.365 902.21 289.284 903.217 289.09 904.077L289.074 904.175V909.809H290.03C290.225 909.809 290.436 909.89 290.695 910.004C291.052 910.15 291.506 910.329 292.057 910.329C294.377 910.329 295.82 909.241 297.215 908.169L298.674 907.114L297.636 905.523L296.063 906.659C294.75 907.65 293.728 908.429 292.041 908.429C291.847 908.429 291.636 908.348 291.376 908.234C291.247 908.185 291.101 908.137 290.955 908.088C290.955 907.033 290.955 904.451 290.955 904.354C291.149 903.412 291.247 902.405 291.328 901.415C291.328 901.35 291.344 901.317 291.344 901.252C294.344 901.658 297.004 901.837 300.28 902.048L302.177 902.178H302.209C302.68 902.178 302.988 901.902 303.166 901.658C303.588 901.658 304.139 901.658 304.139 901.658L303.588 900.343C302.096 896.625 298.625 894.66 293.598 894.66ZM300.442 900.132C297.198 899.921 294.571 899.758 291.603 899.336C291.895 897.453 292.366 896.544 293.598 896.544C296.274 896.544 299.68 897.226 301.415 900.181C300.928 900.164 300.442 900.132 300.442 900.132Z" fill="#F5F1DA"/>
<path fill-rule="evenodd" clip-rule="evenodd" d="M329.146 885.925H327.249C327.249 889.318 327.735 891.981 328.222 894.563C328.708 897.161 329.162 899.629 329.162 902.86C329.162 906.757 324.378 908.526 319.935 908.526C316.578 908.526 314.518 905.717 313.724 903.087L311.907 903.639C313.172 907.763 316.318 910.426 319.935 910.426C325.465 910.426 331.06 908.088 331.06 902.843C331.06 899.45 330.573 896.787 330.087 894.206C329.616 891.608 329.146 889.156 329.146 885.925Z" fill="#F5F1DA"/>
<path fill-rule="evenodd" clip-rule="evenodd" d="M336.281 898.914C336.281 898.411 336.427 897.778 337.125 897.226C337.076 897.469 336.817 898.963 336.817 898.963L338.957 899.401C340.676 899.775 342.282 900.132 344.487 900.132H345.444V894.141H340.352L340.287 894.157C336.379 894.741 334.384 896.349 334.384 898.914C334.384 905.295 342.574 905.88 347.471 906.237L347.601 904.337C341.633 903.915 336.281 903.168 336.281 898.914ZM340.498 896.057C340.628 896.057 342.444 896.057 343.53 896.057C343.53 896.82 343.53 897.404 343.53 898.184C342.006 898.102 340.741 897.843 339.346 897.534C339.346 897.534 337.498 897.161 337.271 897.112C337.903 896.673 338.892 896.3 340.498 896.057Z" fill="#F5F1DA"/>
<path fill-rule="evenodd" clip-rule="evenodd" d="M357.737 893.183L356.991 890.52L355.953 893.085C354.963 895.521 354.234 897.599 353.682 899.677C352.969 899.515 352.239 899.336 351.477 899.142L351.023 900.993C351.801 901.187 352.531 901.366 353.244 901.528C352.758 903.72 352.45 906.01 352.223 908.77L354.12 908.932C354.347 906.237 354.639 904.045 355.109 901.951C356.537 902.259 357.899 902.503 359.261 902.681C360.185 904.695 361.191 906.692 362.277 908.884L363.51 911.319L365.213 910.475L363.98 908.023C363.072 906.237 362.245 904.581 361.467 902.941C363.267 903.103 365.18 903.201 367.418 903.201V901.301C364.791 901.301 362.618 901.187 360.558 900.944C359.488 898.541 358.564 896.089 357.737 893.183ZM355.515 900.083C355.839 898.866 356.228 897.648 356.715 896.333C357.218 897.843 357.753 899.255 358.32 900.603C357.412 900.457 356.488 900.294 355.515 900.083Z" fill="#F5F1DA"/>
<path fill-rule="evenodd" clip-rule="evenodd" d="M381.997 897.794L381.608 896.852L378.365 898.476L377.44 900.376C376.727 901.853 376.094 903.168 375.494 904.565C375.478 904.451 375.478 904.337 375.462 904.24C375.154 900.603 374.829 896.852 370.954 895.131L370.191 896.868C373.046 898.135 373.273 900.895 373.581 904.402C373.694 905.75 373.808 907.13 374.1 908.543L374.765 911.904L375.916 908.673C376.954 905.75 377.927 903.753 379.159 901.22C379.159 901.22 379.613 900.278 379.808 899.888C380.003 899.791 380.214 899.677 380.619 899.482C381.673 902.227 382.078 904.321 382.63 907.081L383.246 910.069L385.111 909.663L384.495 906.708C383.879 903.639 383.408 901.204 381.997 897.794Z" fill="#F5F1DA"/>
<path fill-rule="evenodd" clip-rule="evenodd" d="M396.382 895.164C392.295 895.164 389.554 896.381 387.479 899.109L386.716 900.116L387.884 900.57C391.128 901.837 393.447 902.097 396.366 902.162C394.403 906.091 394.193 906.334 393.884 906.416C392.863 906.708 391.582 907.325 388.03 911.27L389.441 912.537C392.928 908.656 393.933 908.364 394.403 908.234C395.603 907.877 395.766 907.633 398.733 901.626L399.414 900.246H397.89C394.598 900.246 392.538 900.132 389.879 899.255C391.452 897.729 393.463 897.063 396.366 897.063C397.063 897.063 397.533 897.144 398.101 897.242L399.463 897.437L399.658 895.553L398.441 895.375C397.841 895.261 397.241 895.164 396.382 895.164Z" fill="#F5F1DA"/>
<path fill-rule="evenodd" clip-rule="evenodd" d="M277.381 887.857L275.484 887.808L275.354 892.014L277.252 892.062L277.381 887.857Z" fill="#F5F1DA"/>
<path fill-rule="evenodd" clip-rule="evenodd" d="M411.577 900.96C411.577 899.255 413.28 898.541 415.875 897.664L416.653 897.404L416.021 895.602L415.259 895.862C412.761 896.706 409.664 897.745 409.664 900.96C409.664 905.636 414.642 907.763 419.264 907.763V905.864C415.567 905.864 411.577 904.321 411.577 900.96Z" fill="#F5F1DA"/>
<path fill-rule="evenodd" clip-rule="evenodd" d="M432.384 894.222C431.038 893.653 429.465 893.865 428.021 894.806C426.173 896.024 424.94 898.183 424.94 900.181C424.94 903.818 428.135 906.156 433.941 906.724L434.833 906.805L434.978 905.928C434.995 905.831 435.141 905.652 435.27 905.49C435.579 905.1 436 904.565 436 903.737V903.347C436.016 899.823 436.016 895.829 432.384 894.222ZM434.103 903.753C434.103 903.899 434.005 904.029 433.778 904.305C433.665 904.435 433.551 904.581 433.454 904.759C430.713 904.402 426.838 903.331 426.838 900.181C426.838 898.817 427.746 897.258 429.075 896.397C429.594 896.057 430.632 895.537 431.622 895.959C434.005 897.014 434.103 899.856 434.103 902.941C434.103 903.087 434.103 903.753 434.103 903.753Z" fill="#F5F1DA"/>
<path d="M296.471 925.368V941.004H364.55V925.368H296.471Z" fill="#F5F1DA"/>
<path d="M223.807 1964.47H228.007V1953.34H223.807V1964.47ZM231.115 1964.47H235.315V1953.34H231.115V1964.47Z" fill="#F5F1DA"/>
<path d="M255.473 1984H260.093L250.139 1954.18H244.931L234.977 1984H239.597L242.243 1975.73H252.827L255.473 1984ZM243.545 1971.69L247.535 1959.3L251.525 1971.69H243.545Z" fill="#F5F1DA"/>
<path d="M293.58 1961.82C290.682 1961.82 288.876 1962.92 287.574 1964.51C286.818 1963.38 285.306 1961.82 281.862 1961.82C280.098 1961.82 278.628 1962.41 277.494 1963.25V1962.16H273.21L273.378 1965.1C273.588 1968.92 273.378 1983.16 273.378 1984H277.578V1972.28C277.578 1967.54 279.258 1966.02 281.862 1966.02C284.13 1966.02 285.222 1967.33 285.222 1970.94V1984H289.422V1971.82C289.422 1967.16 291.06 1966.02 293.58 1966.02C295.806 1966.02 297.024 1967.33 297.024 1970.6V1984H301.224V1970.9C301.224 1965.1 299.292 1961.82 293.58 1961.82Z" fill="#F5F1DA"/>
<path d="M324.674 1972.87C324.674 1966.11 321.356 1961.78 315.056 1961.78C309.05 1961.78 305.354 1965.98 305.354 1972.87C305.354 1979.38 308.588 1984.34 315.056 1984.34C321.566 1984.34 324.674 1978.83 324.674 1972.87ZM315.056 1980.14C310.394 1980.14 309.554 1975.73 309.554 1972.91C309.554 1969.55 310.73 1965.98 315.056 1965.98C319.214 1965.98 320.474 1969.34 320.474 1972.91C320.474 1976.99 318.794 1980.14 315.056 1980.14Z" fill="#F5F1DA"/>
<path d="M345.311 1984C345.227 1982.74 345.143 1981.56 345.143 1979.8V1953.34H340.985V1963.38C339.557 1962.24 337.835 1961.82 335.903 1961.82C330.191 1961.82 326.957 1966.7 326.957 1973.04C326.957 1979.21 330.149 1984.29 336.281 1984.29C338.171 1984.29 339.851 1983.62 341.027 1982.61V1984H345.311ZM336.281 1980.14C332.459 1980.14 331.115 1976.31 331.115 1973.04C331.115 1969.59 332.543 1966.02 335.903 1966.02C339.977 1966.02 341.027 1970.6 341.027 1973.25C341.027 1976.65 339.641 1980.14 336.281 1980.14Z" fill="#F5F1DA"/>
<path d="M367.328 1974.63C367.412 1973.92 367.496 1972.79 367.496 1971.86C367.496 1966.36 364.64 1961.82 358.97 1961.82C352.88 1961.82 349.352 1966.91 349.352 1973.33C349.352 1979.72 352.796 1984.34 358.886 1984.34C363.422 1984.34 366.068 1981.9 367.328 1977.24H363.002C361.826 1979.88 360.734 1980.18 358.886 1980.18C354.938 1980.18 353.804 1976.61 353.804 1974.63H367.328ZM358.97 1966.02C361.574 1966.02 362.834 1967.66 363.212 1970.81H353.972C354.56 1968.08 355.988 1966.02 358.97 1966.02Z" fill="#F5F1DA"/>
<path d="M379.553 1961.82C378.125 1961.82 376.655 1962.33 375.521 1963.25V1962.16H371.237C371.321 1963 371.405 1965.1 371.405 1966.78V1984H375.605V1971.61C375.605 1967.83 376.739 1965.94 379.595 1965.94C380.351 1965.94 380.855 1966.02 381.611 1966.23V1962.03C380.771 1961.87 380.225 1961.82 379.553 1961.82Z" fill="#F5F1DA"/>
<path d="M393.595 1961.82C391.831 1961.82 390.109 1962.54 388.807 1963.8L388.681 1962.16H384.649C384.817 1963 384.817 1967.37 384.817 1968.46V1984H389.017V1972.79C389.017 1969.22 389.521 1966.07 393.175 1966.07C395.821 1966.07 397.165 1966.86 397.165 1971.4V1984H401.365V1970.48C401.365 1965.06 398.803 1961.82 393.595 1961.82Z" fill="#F5F1DA"/>
<path d="M426.137 1980.09C423.491 1980.09 422.147 1979.3 422.147 1974.76V1966.4H426.557V1962.16H422.147V1956.32L417.947 1958.84V1962.16H415.385V1966.4H417.947V1975.68C417.947 1981.1 420.467 1984.34 425.717 1984.34C426.389 1984.34 427.019 1984.25 427.481 1984.13V1980.01C426.935 1980.09 426.515 1980.09 426.137 1980.09Z" fill="#F5F1DA"/>
<path d="M446.965 1984C446.797 1982.91 446.797 1980.3 446.797 1978.83V1970.1C446.797 1964.6 444.151 1961.82 438.901 1961.82C434.659 1961.82 431.551 1964.3 431.299 1968.08H435.499C435.709 1966.95 436.549 1965.98 438.901 1965.98C441.799 1965.98 442.513 1967.2 442.597 1969.55V1970.77C441.379 1970.6 440.203 1970.48 439.069 1970.48C433.735 1970.48 430.165 1972.91 430.165 1977.66C430.165 1981.06 432.433 1984.34 437.347 1984.34C438.943 1984.34 441.337 1983.54 442.723 1982.36L442.807 1984H446.965ZM437.851 1980.14C435.583 1980.14 434.449 1978.79 434.449 1977.45C434.449 1975.26 436.633 1974.55 439.573 1974.55C440.497 1974.55 441.505 1974.63 442.597 1974.76C442.555 1976.44 441.967 1980.14 437.851 1980.14Z" fill="#F5F1DA"/>
<path d="M469.639 1984L460.945 1970.94L469.513 1962.16H463.969L456.115 1970.22V1953.34H451.915V1984H456.115V1975.89L458.089 1973.88L464.767 1984H469.639Z" fill="#F5F1DA"/>
<path d="M488.324 1974.63C488.408 1973.92 488.492 1972.79 488.492 1971.86C488.492 1966.36 485.636 1961.82 479.966 1961.82C473.876 1961.82 470.348 1966.91 470.348 1973.33C470.348 1979.72 473.792 1984.34 479.882 1984.34C484.418 1984.34 487.064 1981.9 488.324 1977.24H483.998C482.822 1979.88 481.73 1980.18 479.882 1980.18C475.934 1980.18 474.8 1976.61 474.8 1974.63H488.324ZM479.966 1966.02C482.57 1966.02 483.83 1967.66 484.208 1970.81H474.968C475.556 1968.08 476.984 1966.02 479.966 1966.02Z" fill="#F5F1DA"/>
<path d="M521.426 1972.87C521.426 1966.11 518.108 1961.78 511.808 1961.78C505.802 1961.78 502.106 1965.98 502.106 1972.87C502.106 1979.38 505.34 1984.34 511.808 1984.34C518.318 1984.34 521.426 1978.83 521.426 1972.87ZM511.808 1980.14C507.146 1980.14 506.306 1975.73 506.306 1972.91C506.306 1969.55 507.482 1965.98 511.808 1965.98C515.966 1965.98 517.226 1969.34 517.226 1972.91C517.226 1976.99 515.546 1980.14 511.808 1980.14Z" fill="#F5F1DA"/>
<path d="M533.95 1961.82C532.186 1961.82 530.464 1962.54 529.162 1963.8L529.036 1962.16H525.004C525.172 1963 525.172 1967.37 525.172 1968.46V1984H529.372V1972.79C529.372 1969.22 529.876 1966.07 533.53 1966.07C536.176 1966.07 537.52 1966.86 537.52 1971.4V1984H541.72V1970.48C541.72 1965.06 539.158 1961.82 533.95 1961.82Z" fill="#F5F1DA"/>
<path d="M566.493 1980.09C563.847 1980.09 562.503 1979.3 562.503 1974.76V1966.4H566.913V1962.16H562.503V1956.32L558.303 1958.84V1962.16H555.741V1966.4H558.303V1975.68C558.303 1981.1 560.823 1984.34 566.073 1984.34C566.745 1984.34 567.375 1984.25 567.837 1984.13V1980.01C567.291 1980.09 566.871 1980.09 566.493 1980.09Z" fill="#F5F1DA"/>
<path d="M578.982 1961.82C577.218 1961.82 575.622 1962.24 574.32 1963.34V1953.34H569.952C570.078 1954.6 570.12 1956.28 570.12 1957.46V1984H574.32V1972.87C574.32 1968.29 575.832 1965.94 579.108 1965.94C581.502 1965.94 582.636 1966.78 582.636 1971.4V1984H586.836V1970.52C586.836 1964.89 583.98 1961.82 578.982 1961.82Z" fill="#F5F1DA"/>
<path d="M608.746 1974.63C608.83 1973.92 608.914 1972.79 608.914 1971.86C608.914 1966.36 606.058 1961.82 600.388 1961.82C594.298 1961.82 590.77 1966.91 590.77 1973.33C590.77 1979.72 594.214 1984.34 600.304 1984.34C604.84 1984.34 607.486 1981.9 608.746 1977.24H604.42C603.244 1979.88 602.152 1980.18 600.304 1980.18C596.356 1980.18 595.222 1976.61 595.222 1974.63H608.746ZM600.388 1966.02C602.992 1966.02 604.252 1967.66 604.63 1970.81H595.39C595.978 1968.08 597.406 1966.02 600.388 1966.02Z" fill="#F5F1DA"/>
<path d="M643.402 1961.82C640.504 1961.82 638.698 1962.92 637.396 1964.51C636.64 1963.38 635.128 1961.82 631.684 1961.82C629.92 1961.82 628.45 1962.41 627.316 1963.25V1962.16H623.032L623.2 1965.1C623.41 1968.92 623.2 1983.16 623.2 1984H627.4V1972.28C627.4 1967.54 629.08 1966.02 631.684 1966.02C633.952 1966.02 635.044 1967.33 635.044 1970.94V1984H639.244V1971.82C639.244 1967.16 640.882 1966.02 643.402 1966.02C645.628 1966.02 646.846 1967.33 646.846 1970.6V1984H651.046V1970.9C651.046 1965.1 649.114 1961.82 643.402 1961.82Z" fill="#F5F1DA"/>
<path d="M674.496 1972.87C674.496 1966.11 671.178 1961.78 664.878 1961.78C658.872 1961.78 655.176 1965.98 655.176 1972.87C655.176 1979.38 658.41 1984.34 664.878 1984.34C671.388 1984.34 674.496 1978.83 674.496 1972.87ZM664.878 1980.14C660.216 1980.14 659.376 1975.73 659.376 1972.91C659.376 1969.55 660.552 1965.98 664.878 1965.98C669.036 1965.98 670.296 1969.34 670.296 1972.91C670.296 1976.99 668.616 1980.14 664.878 1980.14Z" fill="#F5F1DA"/>
<path d="M692.11 1977.41C692.11 1973.71 689.296 1972.28 686.524 1971.4C683.92 1970.52 681.358 1970.06 681.358 1968.33C681.358 1967.24 681.988 1965.98 684.592 1965.98C687.196 1965.98 687.616 1967.24 687.616 1968.54H691.816C691.816 1964.39 689.002 1961.78 684.592 1961.78C680.224 1961.78 677.158 1964.47 677.158 1968.33C677.158 1972.07 679.552 1973.58 682.114 1974.55C684.97 1975.6 688.036 1975.94 688.036 1977.91C688.036 1979.25 687.364 1980.39 684.298 1980.39C681.694 1980.39 680.938 1979.3 680.938 1977.2H676.738C676.738 1981.52 679.216 1984.34 684.298 1984.34C689.044 1984.34 692.11 1981.65 692.11 1977.41Z" fill="#F5F1DA"/>
<path d="M704.961 1980.09C702.315 1980.09 700.971 1979.3 700.971 1974.76V1966.4H705.381V1962.16H700.971V1956.32L696.771 1958.84V1962.16H694.209V1966.4H696.771V1975.68C696.771 1981.1 699.291 1984.34 704.541 1984.34C705.213 1984.34 705.843 1984.25 706.305 1984.13V1980.01C705.759 1980.09 705.339 1980.09 704.961 1980.09Z" fill="#F5F1DA"/>
<path d="M732.813 1976.06C732.813 1978.29 731.091 1980.26 728.403 1980.26C724.161 1980.26 722.649 1976.4 722.649 1973.12C722.649 1966.74 726.345 1965.9 728.529 1965.9C731.805 1965.9 732.519 1968.12 732.645 1969.47L732.687 1970.01H736.761L736.719 1969.13C736.341 1964.68 733.149 1961.82 728.529 1961.82C722.019 1961.82 718.575 1966.57 718.575 1973.16C718.575 1979.8 722.523 1984.34 728.361 1984.34C733.191 1984.34 736.845 1980.85 736.845 1976.06H732.813Z" fill="#F5F1DA"/>
<path d="M740.87 1953.34V1984H745.028V1953.34H740.87Z" fill="#F5F1DA"/>
<path d="M765.123 1984C764.955 1982.91 764.955 1980.3 764.955 1978.83V1970.1C764.955 1964.6 762.309 1961.82 757.059 1961.82C752.817 1961.82 749.709 1964.3 749.457 1968.08H753.657C753.867 1966.95 754.707 1965.98 757.059 1965.98C759.957 1965.98 760.671 1967.2 760.755 1969.55V1970.77C759.537 1970.6 758.361 1970.48 757.227 1970.48C751.893 1970.48 748.323 1972.91 748.323 1977.66C748.323 1981.06 750.591 1984.34 755.505 1984.34C757.101 1984.34 759.495 1983.54 760.881 1982.36L760.965 1984H765.123ZM756.009 1980.14C753.741 1980.14 752.607 1978.79 752.607 1977.45C752.607 1975.26 754.791 1974.55 757.731 1974.55C758.655 1974.55 759.663 1974.63 760.755 1974.76C760.713 1976.44 760.125 1980.14 756.009 1980.14Z" fill="#F5F1DA"/>
<path d="M784.395 1977.41C784.395 1973.71 781.581 1972.28 778.809 1971.4C776.205 1970.52 773.643 1970.06 773.643 1968.33C773.643 1967.24 774.273 1965.98 776.877 1965.98C779.481 1965.98 779.901 1967.24 779.901 1968.54H784.101C784.101 1964.39 781.287 1961.78 776.877 1961.78C772.509 1961.78 769.443 1964.47 769.443 1968.33C769.443 1972.07 771.837 1973.58 774.399 1974.55C777.255 1975.6 780.321 1975.94 780.321 1977.91C780.321 1979.25 779.649 1980.39 776.583 1980.39C773.979 1980.39 773.223 1979.3 773.223 1977.2H769.023C769.023 1981.52 771.501 1984.34 776.583 1984.34C781.329 1984.34 784.395 1981.65 784.395 1977.41Z" fill="#F5F1DA"/>
<path d="M802.319 1977.41C802.319 1973.71 799.505 1972.28 796.733 1971.4C794.129 1970.52 791.567 1970.06 791.567 1968.33C791.567 1967.24 792.197 1965.98 794.801 1965.98C797.405 1965.98 797.825 1967.24 797.825 1968.54H802.025C802.025 1964.39 799.211 1961.78 794.801 1961.78C790.433 1961.78 787.367 1964.47 787.367 1968.33C787.367 1972.07 789.761 1973.58 792.323 1974.55C795.179 1975.6 798.245 1975.94 798.245 1977.91C798.245 1979.25 797.573 1980.39 794.507 1980.39C791.903 1980.39 791.147 1979.3 791.147 1977.2H786.947C786.947 1981.52 789.425 1984.34 794.507 1984.34C799.253 1984.34 802.319 1981.65 802.319 1977.41Z" fill="#F5F1DA"/>
<path d="M805.92 1954.18V1959.01H810.12V1954.18H805.92ZM805.92 1962.16V1984H810.12V1962.16H805.92Z" fill="#F5F1DA"/>
<path d="M827.969 1976.06C827.969 1978.29 826.247 1980.26 823.559 1980.26C819.317 1980.26 817.805 1976.4 817.805 1973.12C817.805 1966.74 821.501 1965.9 823.685 1965.9C826.961 1965.9 827.675 1968.12 827.801 1969.47L827.843 1970.01H831.917L831.875 1969.13C831.497 1964.68 828.305 1961.82 823.685 1961.82C817.175 1961.82 813.731 1966.57 813.731 1973.16C813.731 1979.8 817.679 1984.34 823.517 1984.34C828.347 1984.34 832.001 1980.85 832.001 1976.06H827.969Z" fill="#F5F1DA"/>
<path d="M863.126 1962.16H852.626C852.71 1958.17 853.886 1957.25 856.616 1957.25H856.826V1953.05C856.826 1953.05 856.574 1953 856.196 1953C850.442 1953 848.426 1956.91 848.426 1961.66V1962.16H845.108V1966.19H848.426L848.384 1984H852.584L852.626 1966.19H858.926V1984H863.126V1962.16ZM858.926 1954.18V1959.01H863.126V1954.18H858.926Z" fill="#F5F1DA"/>
<path d="M877.842 1980.09C875.196 1980.09 873.852 1979.3 873.852 1974.76V1966.4H878.262V1962.16H873.852V1956.32L869.652 1958.84V1962.16H867.09V1966.4H869.652V1975.68C869.652 1981.1 872.172 1984.34 877.422 1984.34C878.094 1984.34 878.724 1984.25 879.186 1984.13V1980.01C878.64 1980.09 878.22 1980.09 877.842 1980.09Z" fill="#F5F1DA"/>
<path d="M883.194 1983.96H887.52V1978.88H883.194V1983.96Z" fill="#F5F1DA"/>
<path d="M891.706 1964.47H895.906V1953.34H891.706V1964.47ZM899.013 1964.47H903.214V1953.34H899.013V1964.47Z" fill="#F5F1DA"/>
<path d="M235.919 1859.04L235.961 1837.41L234.136 1837.41L234.099 1856.73L222.413 1837.39L219.781 1837.38L219.74 1859.01L221.564 1859.01L221.601 1839.75L233.287 1859.03L235.919 1859.04Z" fill="#F5F1DA"/>
<path d="M253.517 1851.8C253.525 1847.77 252.247 1843.73 247.432 1843.72C242.677 1843.71 240.546 1847.41 240.538 1851.75C240.53 1856 242.557 1859.38 247.163 1859.39C250.572 1859.39 252.788 1857.66 253.423 1854.29L251.688 1854.28C251.295 1856.55 249.797 1858.05 247.404 1858.04C244.085 1858.04 242.386 1855.19 242.391 1852.14L242.392 1851.78L253.517 1851.8ZM251.666 1850.45L242.455 1850.44C242.699 1847.69 244.259 1845.12 247.309 1845.12C250.18 1845.13 251.671 1847.49 251.666 1850.15L251.666 1850.45Z" fill="#F5F1DA"/>
<path d="M278.579 1844.02L276.725 1844.01L272.394 1856.77L268.082 1844L266.018 1843.99L261.508 1856.9L257.316 1843.98L255.252 1843.97L260.576 1859.08L262.341 1859.09L266.942 1845.97L271.432 1859.1L273.077 1859.11L278.579 1844.02Z" fill="#F5F1DA"/>
<path d="M296.58 1838.82L296.583 1837.41C295.955 1837.35 295.327 1837.32 294.699 1837.32C291.499 1837.31 291.136 1839.43 291.131 1841.8C291.131 1841.8 291.128 1843.32 291.127 1844.04L288.077 1844.03L288.074 1845.38L291.124 1845.39L291.098 1859.14L292.922 1859.15L292.949 1845.39L296.298 1845.4L296.301 1844.05L292.951 1844.04L292.956 1841.65C292.96 1839.56 293.32 1838.75 295.533 1838.75C295.892 1838.76 296.311 1838.79 296.58 1838.82ZM301.602 1839.81L301.607 1837.54L299.423 1837.54L299.419 1839.81L301.602 1839.81ZM301.386 1859.16L301.415 1844.06L299.59 1844.06L299.562 1859.16L301.386 1859.16Z" fill="#F5F1DA"/>
<path d="M312.805 1859.15L312.808 1857.6C312.329 1857.69 311.791 1857.78 311.432 1857.78C309.548 1857.77 309.31 1856.96 309.313 1855.26L309.332 1845.42L312.712 1845.43L312.714 1844.08L309.335 1844.07L309.342 1840.16L307.516 1840.96L307.51 1844.07L304.52 1844.07L304.517 1845.41L307.508 1845.42L307.487 1856.06C307.483 1858.25 308.498 1859.3 310.681 1859.3C311.399 1859.3 312.087 1859.24 312.805 1859.15Z" fill="#F5F1DA"/>
<path d="M319.701 1837.57L317.308 1837.57L317.635 1854.14L319.31 1854.14L319.701 1837.57ZM319.659 1859.2L319.664 1856.62L317.272 1856.62L317.267 1859.19L319.659 1859.2Z" fill="#F5F1DA"/>
<path d="M229.678 1894.64L236.314 1894.66L236.301 1901.17C234.746 1901.83 233.191 1902.17 230.881 1902.16C223.867 1902.15 222.325 1896.31 222.335 1890.93C222.351 1882.28 226.556 1880.11 230.546 1880.11C234.242 1880.12 235.624 1882.22 235.745 1884.49L240.029 1884.5C240.039 1879.54 236.266 1875.88 230.512 1875.87C222.154 1875.85 218.067 1882.48 218.051 1890.92C218.034 1899.87 222.053 1906.35 230.957 1906.36C234.107 1906.37 237.217 1905.66 240.495 1904.2L240.521 1890.63L229.685 1890.61L229.678 1894.64Z" fill="#F5F1DA"/>
<path d="M253.884 1883.9C252.456 1883.89 250.985 1884.39 249.85 1885.32L249.852 1884.22L245.568 1884.22C245.65 1885.06 245.73 1887.16 245.727 1888.84L245.694 1906.06L249.894 1906.06L249.918 1893.67C249.925 1889.89 251.063 1888.01 253.919 1888.01C254.675 1888.01 255.178 1888.1 255.934 1888.31L255.942 1884.11C255.102 1883.94 254.556 1883.9 253.884 1883.9Z" fill="#F5F1DA"/>
<path d="M258.585 1876.26L258.576 1881.09L262.776 1881.1L262.785 1876.27L258.585 1876.26ZM258.57 1884.24L258.528 1906.08L262.728 1906.09L262.77 1884.25L258.57 1884.24Z" fill="#F5F1DA"/>
<path d="M277.424 1902.21C274.778 1902.21 273.435 1901.4 273.444 1896.87L273.46 1888.51L277.87 1888.52L277.878 1884.28L273.468 1884.27L273.479 1878.43L269.275 1880.94L269.268 1884.26L266.706 1884.26L266.698 1888.5L269.26 1888.5L269.242 1897.78C269.232 1903.2 271.746 1906.44 276.996 1906.45C277.668 1906.45 278.298 1906.37 278.76 1906.24L278.768 1902.13C278.222 1902.21 277.802 1902.21 277.424 1902.21Z" fill="#F5F1DA"/>
<path d="M289.934 1902.23C287.288 1902.23 285.945 1901.43 285.954 1896.89L285.97 1888.53L290.38 1888.54L290.388 1884.3L285.978 1884.29L285.989 1878.45L281.784 1880.97L281.778 1884.28L279.216 1884.28L279.208 1888.52L281.77 1888.53L281.752 1897.81C281.742 1903.23 284.256 1906.47 289.506 1906.48C290.178 1906.48 290.808 1906.39 291.27 1906.27L291.278 1902.15C290.732 1902.24 290.312 1902.23 289.934 1902.23Z" fill="#F5F1DA"/>
<path d="M307.571 1884.33L302.627 1899.95L296.609 1884.31L292.073 1884.3L300.475 1905.24L297.898 1913.38L301.888 1913.39L312.107 1884.34L307.571 1884.33Z" fill="#F5F1DA"/>
<path d="M334.643 1876.41L334.604 1897.07C334.597 1900.68 333.544 1902.32 330.73 1902.31C327.916 1902.31 326.952 1901.3 326.958 1898.19L326.959 1897.31L322.675 1897.3L322.671 1899.44C322.663 1903.77 325.892 1906.5 330.428 1906.51C335.594 1906.52 338.792 1903.08 338.803 1897.41L338.843 1876.41L334.643 1876.41Z" fill="#F5F1DA"/>
<path d="M360.136 1906.27C359.97 1905.18 359.975 1902.58 359.978 1901.11L359.995 1892.37C360.005 1886.87 357.365 1884.09 352.115 1884.08C347.873 1884.08 344.76 1886.55 344.501 1890.33L348.701 1890.33C348.913 1889.2 349.755 1888.24 352.107 1888.24C355.005 1888.25 355.716 1889.47 355.796 1891.82L355.794 1893.04C354.576 1892.87 353.4 1892.74 352.266 1892.74C346.932 1892.73 343.358 1895.15 343.348 1899.9C343.342 1903.3 345.604 1906.58 350.518 1906.59C352.114 1906.6 354.509 1905.8 355.897 1904.63L355.978 1906.27L360.136 1906.27ZM351.03 1902.39C348.762 1902.39 347.63 1901.04 347.633 1899.7C347.637 1897.51 349.822 1896.8 352.762 1896.81C353.686 1896.81 354.694 1896.9 355.786 1897.03C355.741 1898.71 355.146 1902.4 351.03 1902.39Z" fill="#F5F1DA"/>
<path d="M377.921 1898.37C377.917 1900.6 376.191 1902.57 373.503 1902.56C369.261 1902.55 367.757 1898.69 367.763 1895.41C367.775 1889.03 371.473 1888.19 373.657 1888.2C376.933 1888.2 377.643 1890.43 377.766 1891.78L377.807 1892.32L381.881 1892.33L381.841 1891.45C381.471 1887 378.285 1884.13 373.665 1884.12C367.155 1884.11 363.702 1888.85 363.689 1895.45C363.676 1902.08 367.616 1906.62 373.454 1906.64C378.284 1906.65 381.944 1903.17 381.953 1898.38L377.921 1898.37Z" fill="#F5F1DA"/>
<path d="M403.687 1906.36L395.018 1893.28L403.603 1884.52L398.059 1884.51L390.19 1892.56L390.222 1875.67L386.022 1875.66L385.963 1906.32L390.163 1906.33L390.179 1898.23L392.157 1896.21L398.815 1906.35L403.687 1906.36Z" fill="#F5F1DA"/>
<path d="M419.739 1899.79C419.746 1896.1 416.935 1894.67 414.165 1893.78C411.562 1892.89 409.001 1892.42 409.005 1890.7C409.007 1889.61 409.639 1888.35 412.243 1888.36C414.847 1888.36 415.265 1889.62 415.262 1890.92L419.462 1890.93C419.47 1886.77 416.661 1884.16 412.251 1884.16C407.883 1884.15 404.812 1886.83 404.805 1890.69C404.797 1894.43 407.189 1895.95 409.749 1896.92C412.603 1897.97 415.668 1898.32 415.664 1900.29C415.662 1901.63 414.988 1902.77 411.922 1902.76C409.318 1902.76 408.564 1901.66 408.568 1899.56L404.368 1899.56C404.359 1903.88 406.832 1906.7 411.914 1906.71C416.66 1906.72 419.731 1904.04 419.739 1899.79Z" fill="#F5F1DA"/>
<path d="M442.166 1895.3C442.179 1888.54 438.869 1884.21 432.569 1884.19C426.563 1884.18 422.859 1888.38 422.846 1895.26C422.833 1901.77 426.058 1906.74 432.526 1906.75C439.036 1906.76 442.154 1901.27 442.166 1895.3ZM432.534 1902.55C427.872 1902.54 427.04 1898.13 427.046 1895.31C427.052 1891.95 428.235 1888.39 432.561 1888.39C436.719 1888.4 437.972 1891.77 437.966 1895.34C437.958 1899.41 436.272 1902.56 432.534 1902.55Z" fill="#F5F1DA"/>
<path d="M454.711 1884.28C452.947 1884.28 451.224 1884.99 449.92 1886.24L449.797 1884.61L445.765 1884.6C445.931 1885.44 445.923 1889.81 445.921 1890.9L445.891 1906.44L450.091 1906.45L450.112 1895.23C450.119 1891.66 450.629 1888.51 454.283 1888.52C456.929 1888.53 458.272 1889.33 458.263 1893.86L458.239 1906.46L462.439 1906.47L462.465 1892.95C462.475 1887.53 459.919 1884.29 454.711 1884.28Z" fill="#F5F1DA"/>
<path d="M467.461 1906.44L471.787 1906.45L471.797 1901.36L467.471 1901.36L467.461 1906.44Z" fill="#F5F1DA"/>
<path fill-rule="evenodd" clip-rule="evenodd" d="M272.364 1994.35C272.409 1994.35 272.454 1994.35 272.5 1994.35H345.5C345.546 1994.35 345.591 1994.35 345.637 1994.35L384.068 1996.35H626.5C626.543 1996.35 626.586 1996.35 626.629 1996.35L688.116 1999.35L688.129 1999.35L733.579 2001.35L797 2002.35H817.5C817.596 2002.35 817.692 2002.36 817.787 2002.37L845.205 2005.36L888.621 2007.35C890.083 2007.42 891.214 2008.66 891.147 2010.12C891.08 2011.58 889.84 2012.71 888.378 2012.65L844.878 2010.65C844.838 2010.65 844.799 2010.64 844.759 2010.64C844.744 2010.64 844.728 2010.64 844.712 2010.63L817.356 2007.65H797C796.986 2007.65 796.972 2007.65 796.958 2007.65L733.458 2006.65C733.433 2006.65 733.408 2006.65 733.383 2006.65L687.883 2004.65L687.871 2004.65L626.435 2001.65H384C383.954 2001.65 383.908 2001.65 383.862 2001.65L345.431 1999.65H272.568L253.147 2000.65L253.135 2000.65L235.147 2001.65C233.685 2001.73 232.435 2000.61 232.354 1999.15C232.273 1997.69 233.391 1996.44 234.853 1996.35L252.864 1995.35L272.364 1994.35Z" fill="#F5F1DA"/>
<path d="M224.523 296.184V328.578L203.164 296.184H197.872V342H204.325V309.606L225.685 342H230.911V296.184H224.523Z" fill="#F5F1DA"/>
<path d="M264.263 342C264.069 337.741 264.069 333.74 264.069 331.417V308.444H257.616V326.19C257.616 331.288 257.616 335.999 251.163 335.999C246.388 335.999 245.097 334.127 245.097 327.739V308.444H238.644V329.158C238.644 337.741 242.968 342.516 250.712 342.516C253.164 342.516 255.938 341.484 257.745 340.129V342H264.263Z" fill="#F5F1DA"/>
<path d="M296.741 342C296.612 340.064 296.483 338.257 296.483 335.547V294.893H290.095V310.316C287.9 308.573 285.255 307.928 282.286 307.928C273.51 307.928 268.541 315.414 268.541 325.158C268.541 334.644 273.446 342.452 282.867 342.452C285.771 342.452 288.352 341.419 290.159 339.87V342H296.741ZM282.867 336.063C276.995 336.063 274.93 330.191 274.93 325.158C274.93 319.866 277.124 314.381 282.286 314.381C288.546 314.381 290.159 321.415 290.159 325.48C290.159 330.707 288.03 336.063 282.867 336.063Z" fill="#F5F1DA"/>
<path d="M304.498 296.184V303.605H310.951V296.184H304.498ZM304.498 308.444V342H310.951V308.444H304.498Z" fill="#F5F1DA"/>
<path d="M344.747 327.61C344.876 326.513 345.005 324.77 345.005 323.351C345.005 314.897 340.617 307.928 331.905 307.928C322.549 307.928 317.128 315.736 317.128 325.609C317.128 335.418 322.42 342.516 331.776 342.516C338.746 342.516 342.811 338.773 344.747 331.611H338.1C336.293 335.676 334.616 336.128 331.776 336.128C325.711 336.128 323.968 330.643 323.968 327.61H344.747ZM331.905 314.381C335.906 314.381 337.842 316.898 338.423 321.738H324.226C325.13 317.543 327.324 314.381 331.905 314.381Z" fill="#F5F1DA"/>
<path d="M381.151 296.184V327.932C381.151 333.482 379.538 335.999 375.214 335.999C370.891 335.999 369.406 334.45 369.406 329.675V328.32H362.824V331.611C362.824 338.257 367.793 342.452 374.762 342.452C382.7 342.452 387.604 337.16 387.604 328.449V296.184H381.151Z" fill="#F5F1DA"/>
<path d="M421.439 327.61C421.568 326.513 421.697 324.77 421.697 323.351C421.697 314.897 417.309 307.928 408.598 307.928C399.241 307.928 393.82 315.736 393.82 325.609C393.82 335.418 399.112 342.516 408.469 342.516C415.438 342.516 419.503 338.773 421.439 331.611H414.793C412.986 335.676 411.308 336.128 408.469 336.128C402.403 336.128 400.661 330.643 400.661 327.61H421.439ZM408.598 314.381C412.599 314.381 414.535 316.898 415.115 321.738H400.919C401.822 317.543 404.016 314.381 408.598 314.381Z" fill="#F5F1DA"/>
<path d="M452.924 342C452.666 340.322 452.666 336.321 452.666 334.063V320.641C452.666 312.187 448.6 307.928 440.534 307.928C434.017 307.928 429.241 311.735 428.854 317.543H435.307C435.63 315.801 436.92 314.317 440.534 314.317C444.987 314.317 446.084 316.188 446.213 319.802V321.673C444.341 321.415 442.535 321.221 440.792 321.221C432.597 321.221 427.112 324.964 427.112 332.256C427.112 337.483 430.596 342.516 438.146 342.516C440.599 342.516 444.277 341.29 446.406 339.483L446.535 342H452.924ZM438.921 336.063C435.436 336.063 433.694 333.998 433.694 331.933C433.694 328.578 437.049 327.481 441.567 327.481C442.986 327.481 444.535 327.61 446.213 327.803C446.148 330.385 445.245 336.063 438.921 336.063Z" fill="#F5F1DA"/>
<path d="M474.274 307.928C471.564 307.928 468.918 309.025 466.918 310.961L466.724 308.444H460.529C460.787 309.735 460.787 316.446 460.787 318.124V342H467.24V324.77C467.24 319.285 468.015 314.446 473.629 314.446C477.694 314.446 479.759 315.672 479.759 322.641V342H486.212V321.221C486.212 312.897 482.276 307.928 474.274 307.928Z" fill="#F5F1DA"/>
<path d="M516.122 331.869C516.122 326.19 511.799 323.996 507.54 322.641C503.539 321.286 499.603 320.576 499.603 317.93C499.603 316.252 500.571 314.317 504.572 314.317C508.572 314.317 509.218 316.252 509.218 318.253H515.671C515.671 311.864 511.347 307.864 504.572 307.864C497.86 307.864 493.15 311.994 493.15 317.93C493.15 323.673 496.828 325.997 500.764 327.481C505.152 329.094 509.863 329.61 509.863 332.643C509.863 334.708 508.831 336.45 504.12 336.45C500.119 336.45 498.957 334.773 498.957 331.546H492.504C492.504 338.193 496.312 342.516 504.12 342.516C511.412 342.516 516.122 338.386 516.122 331.869Z" fill="#F5F1DA"/>
<path d="M567.927 342L555.279 325.351L567.346 309.412H562.894L553.02 322.835L543.341 309.412H538.437L550.375 325.351L537.727 342H542.179L552.569 327.803L562.829 342H567.927Z" fill="#F5F1DA"/>
<path d="M620.592 296.184H588.004V302.379H601.039V342H607.492V302.379H620.592V296.184Z" fill="#F5F1DA"/>
<path d="M648.114 327.61C648.243 326.513 648.372 324.77 648.372 323.351C648.372 314.897 643.984 307.928 635.272 307.928C625.915 307.928 620.495 315.736 620.495 325.609C620.495 335.418 625.786 342.516 635.143 342.516C642.112 342.516 646.178 338.773 648.114 331.611H641.467C639.66 335.676 637.982 336.128 635.143 336.128C629.077 336.128 627.335 330.643 627.335 327.61H648.114ZM635.272 314.381C639.273 314.381 641.209 316.898 641.79 321.738H627.593C628.496 317.543 630.69 314.381 635.272 314.381Z" fill="#F5F1DA"/>
<path d="M668.305 307.928C665.595 307.928 662.949 309.025 660.949 310.961L660.755 308.444H654.56C654.819 309.735 654.819 316.446 654.819 318.124V342H661.272V324.77C661.272 319.285 662.046 314.446 667.66 314.446C671.725 314.446 673.79 315.672 673.79 322.641V342H680.243V321.221C680.243 312.897 676.307 307.928 668.305 307.928Z" fill="#F5F1DA"/>
<path d="M713.578 342C713.385 337.741 713.385 333.74 713.385 331.417V308.444H706.932V326.19C706.932 331.288 706.932 335.999 700.479 335.999C695.703 335.999 694.413 334.127 694.413 327.739V308.444H687.96V329.158C687.96 337.741 692.283 342.516 700.027 342.516C702.479 342.516 705.254 341.484 707.061 340.129V342H713.578Z" fill="#F5F1DA"/>
<path d="M747.429 327.61C747.558 326.513 747.687 324.77 747.687 323.351C747.687 314.897 743.299 307.928 734.588 307.928C725.231 307.928 719.81 315.736 719.81 325.609C719.81 335.418 725.102 342.516 734.459 342.516C741.428 342.516 745.493 338.773 747.429 331.611H740.783C738.976 335.676 737.298 336.128 734.459 336.128C728.393 336.128 726.651 330.643 726.651 327.61H747.429ZM734.588 314.381C738.589 314.381 740.524 316.898 741.105 321.738H726.909C727.812 317.543 730.006 314.381 734.588 314.381Z" fill="#F5F1DA"/>
<path d="M796.029 342C795.9 340.064 795.771 338.257 795.771 335.547V294.893H789.383V310.316C787.189 308.573 784.543 307.928 781.575 307.928C772.799 307.928 767.83 315.414 767.83 325.158C767.83 334.644 772.734 342.452 782.155 342.452C785.059 342.452 787.64 341.419 789.447 339.87V342H796.029ZM782.155 336.063C776.283 336.063 774.218 330.191 774.218 325.158C774.218 319.866 776.412 314.381 781.575 314.381C787.834 314.381 789.447 321.415 789.447 325.48C789.447 330.707 787.318 336.063 782.155 336.063Z" fill="#F5F1DA"/>
<path d="M829.856 327.61C829.985 326.513 830.114 324.77 830.114 323.351C830.114 314.897 825.726 307.928 817.015 307.928C807.658 307.928 802.237 315.736 802.237 325.609C802.237 335.418 807.529 342.516 816.886 342.516C823.855 342.516 827.92 338.773 829.856 331.611H823.21C821.403 335.676 819.725 336.128 816.886 336.128C810.82 336.128 809.078 330.643 809.078 327.61H829.856ZM817.015 314.381C821.016 314.381 822.951 316.898 823.532 321.738H809.336C810.239 317.543 812.433 314.381 817.015 314.381Z" fill="#F5F1DA"/>
<path d="M878.456 296.184V328.578L857.097 296.184H851.805V342H858.258V309.606L879.618 342H884.845V296.184H878.456Z" fill="#F5F1DA"/>
<path d="M892.578 296.184L888.706 304.831H894.385L897.095 299.152L899.805 304.831H905.484L901.612 296.184H892.578ZM893.739 308.444V342H900.192V308.444H893.739Z" fill="#F5F1DA"/>
<path d="M938.747 307.928C934.294 307.928 931.52 309.606 929.519 312.058C928.358 310.316 926.035 307.928 920.743 307.928C918.033 307.928 915.774 308.832 914.032 310.122V308.444H907.45L907.708 312.961C908.031 318.834 907.708 340.709 907.708 342H914.161V323.996C914.161 316.704 916.742 314.381 920.743 314.381C924.228 314.381 925.906 316.382 925.906 321.931V342H932.359V323.286C932.359 316.123 934.875 314.381 938.747 314.381C942.167 314.381 944.039 316.382 944.039 321.415V342H950.492V321.867C950.492 312.961 947.523 307.928 938.747 307.928Z" fill="#F5F1DA"/>
<path d="M984.312 327.61C984.441 326.513 984.57 324.77 984.57 323.351C984.57 314.897 980.182 307.928 971.471 307.928C962.114 307.928 956.693 315.736 956.693 325.609C956.693 335.418 961.985 342.516 971.342 342.516C978.311 342.516 982.376 338.773 984.312 331.611H977.666C975.859 335.676 974.181 336.128 971.342 336.128C965.276 336.128 963.534 330.643 963.534 327.61H984.312ZM971.471 314.381C975.472 314.381 977.408 316.898 977.988 321.738H963.792C964.695 317.543 966.889 314.381 971.471 314.381Z" fill="#F5F1DA"/>
<path d="M1013.39 331.869C1013.39 326.19 1009.07 323.996 1004.81 322.641C1000.81 321.286 996.874 320.576 996.874 317.93C996.874 316.252 997.842 314.317 1001.84 314.317C1005.84 314.317 1006.49 316.252 1006.49 318.253H1012.94C1012.94 311.864 1008.62 307.864 1001.84 307.864C995.132 307.864 990.421 311.994 990.421 317.93C990.421 323.673 994.1 325.997 998.036 327.481C1002.42 329.094 1007.13 329.61 1007.13 332.643C1007.13 334.708 1006.1 336.45 1001.39 336.45C997.391 336.45 996.229 334.773 996.229 331.546H989.776C989.776 338.193 993.583 342.516 1001.39 342.516C1008.68 342.516 1013.39 338.386 1013.39 331.869Z" fill="#F5F1DA"/>
<path d="M204.325 364.184H197.872V410H224.2V403.805H204.325V364.184Z" fill="#F5F1DA"/>
<path d="M228.877 364.184V371.605H235.33V364.184H228.877ZM228.877 376.444V410H235.33V376.444H228.877Z" fill="#F5F1DA"/>
<path d="M273.723 375.928C269.27 375.928 266.495 377.606 264.495 380.058C263.333 378.316 261.01 375.928 255.719 375.928C253.008 375.928 250.75 376.832 249.008 378.122V376.444H242.425L242.684 380.961C243.006 386.834 242.684 408.709 242.684 410H249.137V391.996C249.137 384.704 251.718 382.381 255.719 382.381C259.203 382.381 260.881 384.382 260.881 389.931V410H267.334V391.286C267.334 384.123 269.851 382.381 273.723 382.381C277.143 382.381 279.014 384.382 279.014 389.415V410H285.467V389.867C285.467 380.961 282.499 375.928 273.723 375.928Z" fill="#F5F1DA"/>
<path d="M292.587 364.184V371.605H299.04V364.184H292.587ZM292.587 376.444V410H299.04V376.444H292.587Z" fill="#F5F1DA"/>
<path d="M321.608 403.999C317.543 403.999 315.478 402.773 315.478 395.803V382.962H322.254V376.444H315.478V367.475L309.025 371.346V376.444H305.089V382.962H309.025V397.223C309.025 405.547 312.897 410.516 320.963 410.516C321.996 410.516 322.963 410.387 323.673 410.194V403.87C322.834 403.999 322.189 403.999 321.608 403.999Z" fill="#F5F1DA"/>
<path d="M354.641 395.61C354.77 394.513 354.899 392.77 354.899 391.351C354.899 382.897 350.511 375.928 341.799 375.928C332.442 375.928 327.022 383.736 327.022 393.609C327.022 403.418 332.313 410.516 341.67 410.516C348.639 410.516 352.705 406.773 354.641 399.611H347.994C346.187 403.676 344.509 404.128 341.67 404.128C335.604 404.128 333.862 398.643 333.862 395.61H354.641ZM341.799 382.381C345.8 382.381 347.736 384.898 348.317 389.738H334.12C335.024 385.543 337.218 382.381 341.799 382.381Z" fill="#F5F1DA"/>
<path d="M387.738 410C387.609 408.064 387.48 406.257 387.48 403.547V362.893H381.092V378.316C378.898 376.573 376.252 375.928 373.284 375.928C364.508 375.928 359.539 383.414 359.539 393.158C359.539 402.644 364.443 410.452 373.865 410.452C376.768 410.452 379.35 409.419 381.156 407.87V410H387.738ZM373.865 404.063C367.992 404.063 365.927 398.191 365.927 393.158C365.927 387.866 368.121 382.381 373.284 382.381C379.543 382.381 381.156 389.415 381.156 393.48C381.156 398.707 379.027 404.063 373.865 404.063Z" fill="#F5F1DA"/>
<path d="M436.286 410C435.841 405.998 435.651 402.122 435.651 398.12V388.59C435.651 380.649 431.966 377.346 424.025 377.346C418.371 377.346 412.843 379.76 412.78 386.176H416.592C417.1 381.602 419.895 380.268 424.025 380.268C429.679 380.268 431.839 383.063 431.839 388.527C431.839 389.289 431.839 389.988 431.775 390.75H430.124C422.246 390.75 410.302 391.068 410.302 401.296C410.302 407.776 415.639 410.699 421.483 410.699C426.248 410.699 429.552 409.428 432.22 405.362C432.411 406.887 432.601 408.475 432.728 410H436.286ZM431.902 393.609C431.902 400.661 431.331 407.903 422.182 407.903C418.116 407.903 414.241 405.616 414.241 401.169C414.241 393.8 423.389 393.482 428.726 393.482C429.806 393.482 430.822 393.546 431.902 393.609Z" fill="#F5F1DA"/>
<path d="M472.316 410V390.369C472.316 382.428 469.775 377.6 461.071 377.6C456.37 377.6 453.193 379.379 450.589 383.254L450.335 377.917H446.523C446.523 380.967 446.713 383.953 446.713 387.002V410H450.589V392.91C450.589 386.557 453.13 380.84 460.372 380.84C467.742 380.84 468.441 385.922 468.441 391.894V410H472.316Z" fill="#F5F1DA"/>
<path d="M509.304 410C509.05 406.823 509.05 403.583 509.05 400.407V364.068H505.175V383.635C502.697 379.188 499.457 377.346 494.375 377.346C485.163 377.346 480.779 385.35 480.779 393.609C480.779 402.313 485.036 410.508 494.692 410.508C499.648 410.508 502.443 408.729 505.175 404.663L505.492 410H509.304ZM505.175 394.054C505.175 400.407 502.888 407.395 495.391 407.395C487.641 407.395 484.909 400.598 484.909 393.927C484.909 387.637 487.196 380.395 494.692 380.395C502.316 380.395 505.175 387.447 505.175 394.054Z" fill="#F5F1DA"/>
<path d="M547.7 375.928C544.99 375.928 542.344 377.025 540.343 378.961L540.15 376.444H533.955C534.213 377.735 534.213 384.446 534.213 386.124V410H540.666V392.77C540.666 387.285 541.44 382.446 547.054 382.446C551.12 382.446 553.185 383.672 553.185 390.641V410H559.638V389.221C559.638 380.897 555.701 375.928 547.7 375.928Z" fill="#F5F1DA"/>
<path d="M592.973 410C592.779 405.741 592.779 401.74 592.779 399.417V376.444H586.326V394.19C586.326 399.288 586.326 403.999 579.873 403.999C575.098 403.999 573.807 402.127 573.807 395.739V376.444H567.354V397.159C567.354 405.741 571.678 410.516 579.421 410.516C581.873 410.516 584.648 409.484 586.455 408.129V410H592.973Z" fill="#F5F1DA"/>
<path d="M632.051 375.928C627.598 375.928 624.823 377.606 622.823 380.058C621.661 378.316 619.338 375.928 614.047 375.928C611.336 375.928 609.078 376.832 607.336 378.122V376.444H600.754L601.012 380.961C601.334 386.834 601.012 408.709 601.012 410H607.465V391.996C607.465 384.704 610.046 382.381 614.047 382.381C617.531 382.381 619.209 384.382 619.209 389.931V410H625.662V391.286C625.662 384.123 628.179 382.381 632.051 382.381C635.471 382.381 637.342 384.382 637.342 389.415V410H643.795V389.867C643.795 380.961 640.827 375.928 632.051 375.928Z" fill="#F5F1DA"/>
<path d="M666.883 375.928C663.85 375.928 661.139 376.832 659.01 378.509V362.893H652.686V402.321C652.686 405.806 652.622 408.064 652.428 410H658.881V408C660.946 409.613 663.527 410.452 666.366 410.452C675.594 410.452 680.628 402.773 680.628 393.158C680.628 383.736 675.723 375.928 666.883 375.928ZM666.366 404.192C661.204 404.192 658.881 399.03 658.881 393.48C658.881 389.35 660.559 382.252 666.883 382.252C672.11 382.252 674.368 387.608 674.368 393.158C674.368 398.772 671.981 404.192 666.366 404.192Z" fill="#F5F1DA"/>
<path d="M713.095 395.61C713.224 394.513 713.353 392.77 713.353 391.351C713.353 382.897 708.965 375.928 700.253 375.928C690.896 375.928 685.476 383.736 685.476 393.609C685.476 403.418 690.767 410.516 700.124 410.516C707.093 410.516 711.159 406.773 713.095 399.611H706.448C704.641 403.676 702.963 404.128 700.124 404.128C694.058 404.128 692.316 398.643 692.316 395.61H713.095ZM700.253 382.381C704.254 382.381 706.19 384.898 706.771 389.738H692.574C693.478 385.543 695.672 382.381 700.253 382.381Z" fill="#F5F1DA"/>
<path d="M731.877 375.928C729.683 375.928 727.425 376.702 725.683 378.122V376.444H719.101C719.23 377.735 719.359 380.961 719.359 383.543V410H725.812V390.964C725.812 385.156 727.554 382.252 731.942 382.252C733.103 382.252 733.878 382.381 735.039 382.704V376.251C733.749 375.993 732.91 375.928 731.877 375.928Z" fill="#F5F1DA"/>
<path d="M765.147 395.61C765.276 394.513 765.405 392.77 765.405 391.351C765.405 382.897 761.017 375.928 752.306 375.928C742.949 375.928 737.528 383.736 737.528 393.609C737.528 403.418 742.82 410.516 752.177 410.516C759.146 410.516 763.211 406.773 765.147 399.611H758.501C756.694 403.676 755.016 404.128 752.177 404.128C746.111 404.128 744.369 398.643 744.369 395.61H765.147ZM752.306 382.381C756.307 382.381 758.242 384.898 758.823 389.738H744.627C745.53 385.543 747.724 382.381 752.306 382.381Z" fill="#F5F1DA"/>
<path d="M798.245 410C798.116 408.064 797.987 406.257 797.987 403.547V362.893H791.598V378.316C789.404 376.573 786.759 375.928 783.79 375.928C775.014 375.928 770.045 383.414 770.045 393.158C770.045 402.644 774.95 410.452 784.371 410.452C787.275 410.452 789.856 409.419 791.663 407.87V410H798.245ZM784.371 404.063C778.499 404.063 776.434 398.191 776.434 393.158C776.434 387.866 778.628 382.381 783.79 382.381C790.05 382.381 791.663 389.415 791.663 393.48C791.663 398.707 789.533 404.063 784.371 404.063Z" fill="#F5F1DA"/>
<path d="M806.002 392.061H812.648V384.253H806.002V392.061ZM806.002 409.935H812.648V402.127H806.002V409.935Z" fill="#F5F1DA"/>
<path d="M839.421 364.184L838.647 364.958C837.292 366.313 835.937 367.539 834.581 368.507V376.057C835.807 375.347 836.969 374.638 838.131 373.799V410H844.584V364.184H839.421Z" fill="#F5F1DA"/>
<path d="M865.579 363.667C854.544 363.667 849.769 374.121 849.769 387.027C849.769 399.998 854.544 410.452 865.579 410.452C876.613 410.452 881.388 399.998 881.388 387.027C881.388 374.121 876.613 363.667 865.579 363.667ZM865.579 404.063C858.222 404.063 855.964 395.674 855.964 387.027C855.964 378.445 858.222 370.185 865.579 370.185C872.87 370.185 875.129 378.445 875.129 387.027C875.129 395.674 872.87 404.063 865.579 404.063Z" fill="#F5F1DA"/>
<path d="M902.381 363.667C891.346 363.667 886.571 374.121 886.571 387.027C886.571 399.998 891.346 410.452 902.381 410.452C913.415 410.452 918.191 399.998 918.191 387.027C918.191 374.121 913.415 363.667 902.381 363.667ZM902.381 404.063C895.024 404.063 892.766 395.674 892.766 387.027C892.766 378.445 895.024 370.185 902.381 370.185C909.673 370.185 911.931 378.445 911.931 387.027C911.931 395.674 909.673 404.063 902.381 404.063Z" fill="#F5F1DA"/>
<path d="M954.621 375.928C951.588 375.928 948.942 376.961 946.813 378.703L946.877 376.444H940.166L940.231 380.961C940.295 384.446 940.36 419.163 940.231 421.099H946.619V408C948.684 409.677 951.265 410.452 954.105 410.452C963.332 410.452 968.366 402.773 968.366 393.158C968.366 383.736 963.462 375.928 954.621 375.928ZM954.105 404.192C948.942 404.192 946.619 399.03 946.619 393.48C946.619 389.35 948.297 382.252 954.621 382.252C959.848 382.252 962.106 387.608 962.106 393.158C962.106 398.772 959.719 404.192 954.105 404.192Z" fill="#F5F1DA"/>
<path d="M998.729 410C998.471 408.322 998.471 404.321 998.471 402.063V388.641C998.471 380.187 994.406 375.928 986.339 375.928C979.822 375.928 975.047 379.735 974.659 385.543H981.112C981.435 383.801 982.726 382.317 986.339 382.317C990.792 382.317 991.889 384.188 992.018 387.802V389.673C990.147 389.415 988.34 389.221 986.597 389.221C978.402 389.221 972.917 392.964 972.917 400.256C972.917 405.483 976.402 410.516 983.952 410.516C986.404 410.516 990.082 409.29 992.212 407.483L992.341 410H998.729ZM984.726 404.063C981.242 404.063 979.499 401.998 979.499 399.933C979.499 396.578 982.855 395.481 987.372 395.481C988.792 395.481 990.34 395.61 992.018 395.803C991.953 398.385 991.05 404.063 984.726 404.063Z" fill="#F5F1DA"/>
<path d="M1005.7 364.184V371.605H1012.16V364.184H1005.7ZM1005.7 376.444V410H1012.16V376.444H1005.7Z" fill="#F5F1DA"/>
<path d="M1032.66 375.928C1030.47 375.928 1028.21 376.702 1026.47 378.122V376.444H1019.88C1020.01 377.735 1020.14 380.961 1020.14 383.543V410H1026.59V390.964C1026.59 385.156 1028.34 382.252 1032.72 382.252C1033.89 382.252 1034.66 382.381 1035.82 382.704V376.251C1034.53 375.993 1033.69 375.928 1032.66 375.928Z" fill="#F5F1DA"/>
<path d="M1061.68 399.869C1061.68 394.19 1057.35 391.996 1053.09 390.641C1049.09 389.286 1045.16 388.576 1045.16 385.93C1045.16 384.252 1046.12 382.317 1050.12 382.317C1054.13 382.317 1054.77 384.253 1054.77 386.253H1061.22C1061.22 379.864 1056.9 375.864 1050.12 375.864C1043.41 375.864 1038.7 379.994 1038.7 385.93C1038.7 391.673 1042.38 393.997 1046.32 395.481C1050.71 397.094 1055.42 397.61 1055.42 400.643C1055.42 402.708 1054.38 404.45 1049.67 404.45C1045.67 404.45 1044.51 402.773 1044.51 399.546H1038.06C1038.06 406.193 1041.86 410.516 1049.67 410.516C1056.96 410.516 1061.68 406.386 1061.68 399.869Z" fill="#F5F1DA"/>
</svg>
