<svg width="2500" height="1672" viewBox="0 0 2500 1672" fill="none" xmlns="http://www.w3.org/2000/svg">
<path d="M781.998 895.144C778.446 875.164 775.782 861.178 758.244 854.518C771.786 847.192 781.998 832.984 781.998 815.668C781.998 781.702 760.464 770.38 725.61 770.38H683.43V928H705.63V863.176H725.61C743.592 863.176 756.468 868.948 759.798 899.584C760.908 909.574 762.018 919.786 764.46 928H789.102C785.328 918.898 783.996 906.91 781.998 895.144ZM720.282 841.864H705.63V791.692H728.274C753.804 791.692 759.354 801.904 759.354 815.668C759.354 838.534 744.48 841.864 720.282 841.864Z" fill="#EEEFB7"/>
<path d="M897.993 878.494C898.437 874.72 898.881 868.726 898.881 863.842C898.881 834.76 883.785 810.784 853.815 810.784C821.625 810.784 802.977 837.646 802.977 871.612C802.977 905.356 821.181 929.776 853.371 929.776C877.347 929.776 891.333 916.9 897.993 892.258H875.127C868.911 906.244 863.139 907.798 853.371 907.798C832.503 907.798 826.509 888.928 826.509 878.494H897.993ZM853.815 832.984C867.579 832.984 874.239 841.642 876.237 858.292H827.397C830.505 843.862 838.053 832.984 853.815 832.984Z" fill="#EEEFB7"/>
<path d="M969.901 810.784C959.467 810.784 950.365 814.336 943.039 820.33L943.261 812.56H920.173L920.395 828.1C920.617 840.088 920.839 959.524 920.395 966.184H942.373V921.118C949.477 926.89 958.357 929.554 968.125 929.554C999.871 929.554 1017.19 903.136 1017.19 870.058C1017.19 837.646 1000.31 810.784 969.901 810.784ZM968.125 908.02C950.365 908.02 942.373 890.26 942.373 871.168C942.373 856.96 948.145 832.54 969.901 832.54C987.883 832.54 995.653 850.966 995.653 870.058C995.653 889.372 987.439 908.02 968.125 908.02Z" fill="#EEEFB7"/>
<path d="M1121.64 928C1120.76 922.228 1120.76 908.464 1120.76 900.694V854.518C1120.76 825.436 1106.77 810.784 1079.02 810.784C1056.6 810.784 1040.17 823.882 1038.84 843.862H1061.04C1062.15 837.868 1066.59 832.762 1079.02 832.762C1094.34 832.762 1098.11 839.2 1098.56 851.632V858.07C1092.12 857.182 1085.9 856.516 1079.91 856.516C1051.71 856.516 1032.84 869.392 1032.84 894.478C1032.84 912.46 1044.83 929.776 1070.81 929.776C1079.24 929.776 1091.9 925.558 1099.22 919.342L1099.67 928H1121.64ZM1073.47 907.576C1061.48 907.576 1055.49 900.472 1055.49 893.368C1055.49 881.824 1067.03 878.05 1082.57 878.05C1087.46 878.05 1092.78 878.494 1098.56 879.16C1098.33 888.04 1095.23 907.576 1073.47 907.576Z" fill="#EEEFB7"/>
<path d="M1145.64 770.38V795.91H1167.84V770.38H1145.64ZM1145.64 812.56V928H1167.84V812.56H1145.64Z" fill="#EEEFB7"/>
<path d="M1238.38 810.784C1230.83 810.784 1223.06 813.448 1217.06 818.332V812.56H1194.42C1194.86 817 1195.31 828.1 1195.31 836.98V928H1217.51V862.51C1217.51 842.53 1223.5 832.54 1238.6 832.54C1242.59 832.54 1245.26 832.984 1249.25 834.094V811.894C1244.81 811.006 1241.93 810.784 1238.38 810.784Z" fill="#EEEFB7"/>
<path d="M1377.92 837.646L1364.16 832.54C1346.84 826.102 1339.96 822.328 1339.96 812.338C1339.96 802.348 1346.4 790.804 1368.37 790.804C1387.69 790.804 1395.24 799.018 1395.24 812.56H1417.88C1417.88 786.808 1401.67 768.604 1368.37 768.604C1337.74 768.604 1317.31 786.364 1317.31 812.782C1317.31 838.756 1338.18 848.968 1355.72 855.184L1369.26 860.068C1387.91 866.728 1397.23 871.39 1397.23 883.378C1397.23 904.912 1376.81 907.576 1367.49 907.576C1349.06 907.576 1337.52 902.026 1335.96 883.378H1313.32C1313.32 914.902 1337.07 929.776 1366.6 929.776C1399.01 929.776 1419.88 911.35 1419.88 883.156C1419.88 853.186 1393.46 843.418 1377.92 837.646Z" fill="#EEEFB7"/>
<path d="M1490.86 810.784C1480.43 810.784 1471.33 814.336 1464 820.33L1464.22 812.56H1441.14L1441.36 828.1C1441.58 840.088 1441.8 959.524 1441.36 966.184H1463.34V921.118C1470.44 926.89 1479.32 929.554 1489.09 929.554C1520.83 929.554 1538.15 903.136 1538.15 870.058C1538.15 837.646 1521.28 810.784 1490.86 810.784ZM1489.09 908.02C1471.33 908.02 1463.34 890.26 1463.34 871.168C1463.34 856.96 1469.11 832.54 1490.86 832.54C1508.85 832.54 1516.62 850.966 1516.62 870.058C1516.62 889.372 1508.4 908.02 1489.09 908.02Z" fill="#EEEFB7"/>
<path d="M1658.96 869.17C1658.96 833.428 1641.42 810.562 1608.12 810.562C1576.38 810.562 1556.84 832.762 1556.84 869.17C1556.84 903.58 1573.94 929.776 1608.12 929.776C1642.53 929.776 1658.96 900.694 1658.96 869.17ZM1608.12 907.576C1583.48 907.576 1579.04 884.266 1579.04 869.392C1579.04 851.632 1585.26 832.762 1608.12 832.762C1630.1 832.762 1636.76 850.522 1636.76 869.392C1636.76 890.926 1627.88 907.576 1608.12 907.576Z" fill="#EEEFB7"/>
<path d="M1726.55 907.354C1712.57 907.354 1705.46 903.136 1705.46 879.16V834.982H1728.77V812.56H1705.46V781.702L1683.26 795.022V812.56H1669.72V834.982H1683.26V884.044C1683.26 912.682 1696.58 929.776 1724.33 929.776C1727.89 929.776 1731.21 929.332 1733.66 928.666V906.91C1730.77 907.354 1728.55 907.354 1726.55 907.354Z" fill="#EEEFB7"/>
<path d="M1821 893.146C1821 873.61 1806.13 866.062 1791.48 861.4C1777.71 856.738 1764.17 854.296 1764.17 845.194C1764.17 839.422 1767.5 832.762 1781.27 832.762C1795.03 832.762 1797.25 839.422 1797.25 846.304H1819.45C1819.45 824.326 1804.58 810.562 1781.27 810.562C1758.18 810.562 1741.97 824.77 1741.97 845.194C1741.97 864.952 1754.63 872.944 1768.17 878.05C1783.26 883.6 1799.47 885.376 1799.47 895.81C1799.47 902.914 1795.92 908.908 1779.71 908.908C1765.95 908.908 1761.95 903.136 1761.95 892.036H1739.75C1739.75 914.902 1752.85 929.776 1779.71 929.776C1804.8 929.776 1821 915.568 1821 893.146Z" fill="#EEEFB7"/>
<circle cx="1174" cy="565" r="5.85" fill="#FF6600" fill-opacity="0.77" stroke="#FF6600" stroke-width="2.3"/>
<circle cx="1192" cy="573" r="5.85" fill="#FF6600" fill-opacity="0.77" stroke="#FF6600" stroke-width="2.3"/>
<circle cx="1200" cy="592" r="5.85" fill="#FF6600" fill-opacity="0.77" stroke="#FF6600" stroke-width="2.3"/>
<circle cx="1230" cy="549" r="5.85" fill="#FF6600" fill-opacity="0.77" stroke="#FF6600" stroke-width="2.3"/>
<circle cx="1103" cy="620" r="5.85" fill="#FF6600" fill-opacity="0.77" stroke="#FF6600" stroke-width="2.3"/>
<circle cx="1196" cy="621" r="5.85" fill="#FF6600" fill-opacity="0.77" stroke="#FF6600" stroke-width="2.3"/>
<circle cx="1127" cy="728" r="5.85" fill="#FF6600" fill-opacity="0.77" stroke="#FF6600" stroke-width="2.3"/>
<circle cx="1151" cy="625" r="5.85" fill="#FF6600" fill-opacity="0.77" stroke="#FF6600" stroke-width="2.3"/>
<circle cx="1176" cy="629" r="5.85" fill="#FF6600" fill-opacity="0.77" stroke="#FF6600" stroke-width="2.3"/>
<circle cx="1202" cy="669" r="5.85" fill="#FF6600" fill-opacity="0.77" stroke="#FF6600" stroke-width="2.3"/>
<circle cx="602" cy="755" r="5.85" fill="#FF6600" fill-opacity="0.77" stroke="#FF6600" stroke-width="2.3"/>
<circle cx="631" cy="639" r="5.85" fill="#FF6600" fill-opacity="0.77" stroke="#FF6600" stroke-width="2.3"/>
<circle cx="442" cy="559" r="5.85" fill="#FF6600" fill-opacity="0.77" stroke="#FF6600" stroke-width="2.3"/>
<circle cx="2047" cy="1388" r="5.85" fill="#FF6600" fill-opacity="0.77" stroke="#FF6600" stroke-width="2.3"/>
<circle cx="2148" cy="1381" r="5.85" fill="#FF6600" fill-opacity="0.77" stroke="#FF6600" stroke-width="2.3"/>
<circle cx="2101" cy="1424" r="5.85" fill="#FF6600" fill-opacity="0.77" stroke="#FF6600" stroke-width="2.3"/>
<circle cx="2167" cy="1262" r="5.85" fill="#FF6600" fill-opacity="0.77" stroke="#FF6600" stroke-width="2.3"/>
<circle cx="1890" cy="1097" r="5.85" fill="#FF6600" fill-opacity="0.77" stroke="#FF6600" stroke-width="2.3"/>
<circle cx="1838" cy="926" r="5.85" fill="#FF6600" fill-opacity="0.77" stroke="#FF6600" stroke-width="2.3"/>
<circle cx="2073" cy="705" r="5.85" fill="#FF6600" fill-opacity="0.77" stroke="#FF6600" stroke-width="2.3"/>
<circle cx="2059" cy="722" r="5.85" fill="#FF6600" fill-opacity="0.77" stroke="#FF6600" stroke-width="2.3"/>
<circle cx="2033" cy="718" r="5.85" fill="#FF6600" fill-opacity="0.77" stroke="#FF6600" stroke-width="2.3"/>
<circle cx="291" cy="694" r="5.85" fill="#FF6600" fill-opacity="0.77" stroke="#FF6600" stroke-width="2.3"/>
<circle cx="311" cy="756" r="5.85" fill="#FF6600" fill-opacity="0.77" stroke="#FF6600" stroke-width="2.3"/>
</svg>
